<svg width="544" height="511" viewBox="0 0 544 511" fill="none" xmlns="http://www.w3.org/2000/svg">
<path d="M459.165 65.4856L456.664 61.3581C435.567 26.5434 397.503 5.58281 357.338 8.1311C352.182 8.45651 347.055 9.16023 341.999 10.2367C305.422 18.073 273.694 45.7214 260.526 81.1342C252.774 101.963 250.615 125.951 235.913 142.485C216.775 164.019 184.291 164.665 155.737 163.78C127.183 162.895 94.6766 163.649 75.6327 185.243C63.7156 198.774 59.9162 218.012 60.8838 236.137C63.4324 284.1 96.8123 326.99 139.266 348.31C181.719 369.629 231.665 371.532 278.13 362.188C343.215 349.028 405.113 312.981 442.328 257.253C479.542 201.526 488.946 125.58 459.165 65.4856Z" fill="#F5F5F5"/>
<path d="M198.486 78.407C191.406 70.2597 176.61 65.7732 165.873 67.0055C160.965 66.8791 156.096 67.9205 151.657 70.0462C147.218 72.1718 143.332 75.3227 140.31 79.246C137.289 83.1693 135.216 87.756 134.258 92.6382C133.3 97.5203 133.483 102.562 134.794 107.359C138.782 122.027 152.988 132.089 167.725 134.948C177.165 136.766 187.548 135.929 195.276 130.162C203.005 124.396 206.828 114.968 207.854 105.493C209.023 94.7017 205.554 86.5544 198.486 78.407Z" fill="#F5F5F5"/>
<path d="M543.116 504.342C543.116 504.509 421.585 504.653 271.57 504.653C121.555 504.653 0 504.557 0 504.342C0 504.126 121.532 504.031 271.57 504.031C421.608 504.031 543.116 504.174 543.116 504.342Z" fill="#263238"/>
<path d="M513.666 145.799H342.247V262.183H513.666V145.799Z" fill="white"/>
<path d="M513.666 262.171C513.666 262.171 513.666 261.441 513.666 260.053V253.915C513.666 248.532 513.666 240.624 513.595 230.514C513.595 210.284 513.524 181.223 513.465 145.799L513.713 146.038L342.306 146.11L342.613 145.799C342.613 187.253 342.613 226.674 342.613 262.171L342.33 261.883L465.832 262.027L501.111 262.099H510.492H512.922H510.562H501.229L466.009 262.171L342.33 262.314H342.047V262.027C342.047 226.53 342.047 187.11 342.047 145.655V145.332H342.365L513.772 145.404H514.02V145.655C514.02 181.152 513.925 210.26 513.89 230.514C513.89 240.612 513.89 248.46 513.831 253.868C513.831 256.536 513.831 258.581 513.831 259.969C513.831 261.357 513.666 262.171 513.666 262.171Z" fill="#92E3A9"/>
<path d="M342.247 156.184C342.247 156.004 380.594 155.873 427.886 155.873C475.177 155.873 513.524 156.004 513.524 156.184C513.524 156.363 475.188 156.495 427.886 156.495C380.583 156.495 342.247 156.411 342.247 156.184Z" fill="#92E3A9"/>
<g opacity="0.3">
<path d="M349.008 150.943C349.008 151.221 348.927 151.492 348.775 151.722C348.622 151.953 348.406 152.132 348.153 152.238C347.9 152.343 347.622 152.37 347.354 152.315C347.086 152.26 346.84 152.126 346.647 151.929C346.455 151.732 346.324 151.481 346.272 151.209C346.22 150.937 346.249 150.655 346.356 150.399C346.462 150.144 346.641 149.926 346.869 149.774C347.098 149.621 347.366 149.541 347.639 149.544C347.82 149.544 347.999 149.58 348.166 149.65C348.333 149.721 348.484 149.824 348.611 149.954C348.739 150.084 348.839 150.239 348.907 150.409C348.975 150.578 349.01 150.76 349.008 150.943Z" fill="#92E3A9"/>
</g>
<g opacity="0.3">
<path d="M353.716 150.943C353.716 151.221 353.635 151.492 353.482 151.722C353.33 151.953 353.114 152.132 352.861 152.238C352.608 152.343 352.33 152.37 352.062 152.315C351.794 152.26 351.548 152.126 351.355 151.929C351.162 151.732 351.032 151.481 350.98 151.209C350.928 150.937 350.957 150.655 351.063 150.399C351.17 150.144 351.348 149.926 351.577 149.774C351.806 149.621 352.074 149.541 352.347 149.544C352.528 149.544 352.707 149.58 352.874 149.65C353.041 149.721 353.192 149.824 353.319 149.954C353.446 150.084 353.547 150.239 353.615 150.409C353.683 150.578 353.717 150.76 353.716 150.943Z" fill="#92E3A9"/>
</g>
<g opacity="0.3">
<path d="M358.353 150.943C358.353 151.221 358.272 151.492 358.119 151.722C357.967 151.953 357.751 152.132 357.498 152.238C357.245 152.343 356.967 152.37 356.699 152.315C356.431 152.26 356.185 152.126 355.992 151.929C355.799 151.732 355.669 151.481 355.617 151.209C355.565 150.937 355.594 150.655 355.7 150.399C355.807 150.144 355.986 149.926 356.214 149.774C356.443 149.621 356.711 149.541 356.984 149.544C357.165 149.544 357.344 149.58 357.511 149.65C357.678 149.721 357.829 149.824 357.956 149.954C358.083 150.084 358.184 150.239 358.252 150.409C358.32 150.578 358.354 150.76 358.353 150.943Z" fill="#92E3A9"/>
</g>
<path d="M402.706 168.314H356.984V214.674H402.706V168.314Z" fill="#92E3A9"/>
<path d="M490.162 181.415C490.162 181.595 472.321 181.726 450.328 181.726C428.334 181.726 410.494 181.595 410.494 181.415C410.494 181.236 428.334 181.104 450.328 181.104C472.321 181.104 490.162 181.248 490.162 181.415Z" fill="#92E3A9"/>
<path d="M490.162 190.041C490.162 190.209 472.321 190.352 450.328 190.352C428.334 190.352 410.494 190.209 410.494 190.041C410.494 189.874 428.334 189.73 450.328 189.73C472.321 189.73 490.162 189.909 490.162 190.041Z" fill="#92E3A9"/>
<path d="M490.162 198.655C490.162 198.822 472.321 198.966 450.328 198.966C428.334 198.966 410.494 198.822 410.494 198.655C410.494 198.487 428.334 198.344 450.328 198.344C472.321 198.344 490.162 198.475 490.162 198.655Z" fill="#92E3A9"/>
<path d="M457.584 207.269C456.971 207.366 456.351 207.406 455.732 207.389L450.682 207.484C446.422 207.544 440.534 207.58 434.045 207.58C427.555 207.58 421.656 207.58 417.396 207.484L412.346 207.389C411.726 207.406 411.106 207.366 410.494 207.269C411.106 207.172 411.726 207.132 412.346 207.149L417.396 207.054C421.656 206.994 427.543 206.958 434.045 206.958C440.546 206.958 446.422 206.958 450.682 207.054L455.732 207.149C456.351 207.132 456.971 207.172 457.584 207.269Z" fill="#92E3A9"/>
<g opacity="0.3">
<path d="M381.326 230.311H359.84V252.097H381.326V230.311Z" fill="#92E3A9"/>
</g>
<path d="M420.299 230.311H398.812V252.097H420.299V230.311Z" fill="#92E3A9"/>
<path d="M459.271 230.311H437.785V252.097H459.271V230.311Z" fill="#92E3A9"/>
<path d="M498.244 230.311H476.758V252.097H498.244V230.311Z" fill="#92E3A9"/>
<g opacity="0.3">
<path d="M402.706 168.314H356.984V214.674H402.706V168.314Z" fill="white"/>
</g>
<g opacity="0.3">
<path d="M420.299 230.311H398.812V252.097H420.299V230.311Z" fill="white"/>
</g>
<g opacity="0.3">
<path d="M459.271 230.311H437.785V252.097H459.271V230.311Z" fill="white"/>
</g>
<g opacity="0.3">
<path d="M498.244 230.311H476.758V252.097H498.244V230.311Z" fill="white"/>
</g>
<path d="M181.448 187.72H28.7428V250.614H181.448V187.72Z" fill="white"/>
<path d="M181.448 250.614C181.448 250.614 181.448 250.231 181.448 249.489C181.448 248.747 181.448 247.659 181.448 246.223C181.448 243.352 181.448 239.14 181.448 233.709C181.448 222.858 181.448 207.149 181.353 187.72L181.519 187.887L28.8254 187.959L29.0732 187.72C29.0732 209.745 29.0732 231.005 29.0732 250.614L28.8372 250.374L138.322 250.482L170.085 250.554H178.592H180.787H178.64H170.191L138.487 250.614L28.8372 250.721H28.4951V187.517H28.7428L181.436 187.6H181.613V187.768C181.613 207.245 181.542 222.977 181.519 233.864C181.519 239.272 181.519 243.435 181.519 246.343C181.519 247.754 181.519 248.831 181.519 249.573C181.519 250.315 181.448 250.614 181.448 250.614Z" fill="#92E3A9"/>
<path d="M28.8962 196.202C28.8962 196.071 63.0312 195.951 105.119 195.951C147.207 195.951 181.365 196.071 181.365 196.202C181.365 196.334 147.23 196.442 105.119 196.442C63.0077 196.442 28.8962 196.334 28.8962 196.202Z" fill="#92E3A9"/>
<g opacity="0.3">
<path d="M35.2914 192.41C35.2914 192.632 35.2263 192.85 35.1044 193.035C34.9826 193.219 34.8094 193.364 34.6067 193.449C34.404 193.534 34.181 193.556 33.9659 193.513C33.7507 193.469 33.5531 193.362 33.398 193.205C33.2429 193.048 33.1372 192.847 33.0944 192.629C33.0516 192.411 33.0736 192.185 33.1575 191.979C33.2415 191.774 33.3837 191.598 33.566 191.475C33.7484 191.351 33.9629 191.285 34.1822 191.285C34.4764 191.285 34.7585 191.404 34.9665 191.615C35.1745 191.825 35.2914 192.111 35.2914 192.41Z" fill="#92E3A9"/>
</g>
<g opacity="0.3">
<path d="M39.1143 192.41C39.1143 192.632 39.0493 192.85 38.9274 193.035C38.8055 193.219 38.6323 193.364 38.4296 193.449C38.227 193.534 38.0039 193.556 37.7888 193.513C37.5737 193.469 37.376 193.362 37.2209 193.205C37.0658 193.048 36.9602 192.847 36.9174 192.629C36.8746 192.411 36.8965 192.185 36.9805 191.979C37.0644 191.774 37.2066 191.598 37.389 191.475C37.5714 191.351 37.7858 191.285 38.0052 191.285C38.2993 191.285 38.5814 191.404 38.7895 191.615C38.9975 191.825 39.1143 192.111 39.1143 192.41Z" fill="#92E3A9"/>
</g>
<g opacity="0.3">
<path d="M42.831 192.41C42.831 192.632 42.766 192.85 42.6441 193.035C42.5222 193.219 42.349 193.364 42.1464 193.449C41.9437 193.534 41.7207 193.556 41.5055 193.513C41.2904 193.469 41.0928 193.362 40.9376 193.205C40.7825 193.048 40.6769 192.847 40.6341 192.629C40.5913 192.411 40.6133 192.185 40.6972 191.979C40.7812 191.774 40.9233 191.598 41.1057 191.475C41.2881 191.351 41.5026 191.285 41.7219 191.285C42.0161 191.285 42.2982 191.404 42.5062 191.615C42.7142 191.825 42.831 192.111 42.831 192.41Z" fill="#92E3A9"/>
</g>
<path d="M78.6062 206.419H41.7219V243.818H78.6062V206.419Z" fill="#92E3A9"/>
<path d="M170.888 216.445C170.888 216.576 151.903 216.696 128.493 216.696C105.084 216.696 86.0986 216.576 86.0986 216.445C86.0986 216.313 105.084 216.206 128.493 216.206C151.903 216.206 170.888 216.313 170.888 216.445Z" fill="#92E3A9"/>
<path d="M170.888 224.066C170.888 224.198 151.903 224.305 128.493 224.305C105.084 224.305 86.0986 224.198 86.0986 224.066C86.0986 223.935 105.084 223.815 128.493 223.815C151.903 223.815 170.888 223.935 170.888 224.066Z" fill="#92E3A9"/>
<path d="M140.682 231.687C140.497 231.7 140.312 231.7 140.127 231.687H138.534L132.694 231.759L113.39 231.83L94.0985 231.759L88.1989 231.687H86.606C86.4213 231.699 86.2361 231.699 86.0515 231.687C86.2353 231.66 86.4221 231.66 86.606 231.687H88.1989L94.0985 231.603L113.39 231.531L132.694 231.603L138.534 231.687H140.127C140.311 231.659 140.498 231.659 140.682 231.687Z" fill="#92E3A9"/>
<g opacity="0.3">
<path d="M78.6062 206.419H41.7219V243.818H78.6062V206.419Z" fill="#F5F5F5"/>
</g>
<path d="M293.658 108.687C291.098 106.953 287.581 108.005 285.021 109.74C282.461 111.475 280.301 113.844 277.411 114.968C272.03 117.086 264.962 114.573 260.786 118.557C258.131 121.118 257.859 125.329 255.83 128.428C252.408 133.644 244.196 135.606 243.5 141.827C243.087 145.416 245.919 148.934 249.399 149.95C251.158 150.369 252.984 150.4 254.755 150.04C256.526 149.681 258.2 148.941 259.665 147.869C263.204 145.476 265.93 141.887 269.918 140.523C273.906 139.159 279.039 140.296 282.26 137.412C285.481 134.529 284.997 129.205 287.31 125.52C288.701 123.668 290.35 122.032 292.207 120.663C293.941 119.144 295.593 117.265 295.888 114.956C296.183 112.647 295.251 108.711 293.682 108.627" fill="#F5F5F5"/>
<path d="M227.17 362.858C227.323 362.774 227.795 363.253 228.243 363.935C228.692 364.617 228.94 365.263 228.798 365.359C228.656 365.454 228.184 364.976 227.724 364.282C227.264 363.588 227.028 362.954 227.17 362.858Z" fill="#263238"/>
<path d="M222.12 352.067C222.756 352.849 223.234 353.752 223.524 354.723C223.99 355.618 224.275 356.598 224.361 357.606C223.247 355.936 222.483 354.05 222.12 352.067Z" fill="#263238"/>
<path d="M219.382 340.438C220.138 342.303 220.504 344.308 220.456 346.324C219.985 345.431 219.7 344.45 219.618 343.441C219.342 342.466 219.261 341.445 219.382 340.438Z" fill="#263238"/>
<path d="M218.969 328.486C219.343 330.465 219.315 332.501 218.887 334.468C218.587 333.502 218.495 332.482 218.615 331.477C218.523 330.466 218.644 329.447 218.969 328.486Z" fill="#263238"/>
<path d="M220.822 316.726C220.917 317.734 220.808 318.752 220.503 319.717C220.385 320.722 220.073 321.694 219.583 322.576C219.488 321.567 219.596 320.55 219.901 319.585C220.021 318.58 220.334 317.609 220.822 316.726Z" fill="#263238"/>
<path d="M225.117 305.539C224.723 307.508 223.918 309.368 222.757 310.995C222.875 309.988 223.192 309.016 223.689 308.136C224.361 306.616 224.963 305.456 225.117 305.539Z" fill="#263238"/>
<path d="M231.618 295.562C231.291 296.521 230.777 297.404 230.108 298.158C229.577 299.012 228.902 299.765 228.114 300.383C227.948 300.275 228.633 299.115 229.612 297.787C230.591 296.459 231.441 295.454 231.618 295.562Z" fill="#263238"/>
<path d="M239.547 286.709C239.677 286.828 238.863 287.905 237.742 289.102C236.621 290.298 235.606 291.159 235.476 291.052C235.346 290.944 236.161 289.855 237.293 288.659C238.426 287.462 239.429 286.577 239.547 286.709Z" fill="#263238"/>
<path d="M247.854 278.191C247.983 278.31 247.146 279.387 246.001 280.583C244.857 281.78 243.83 282.617 243.712 282.498C243.594 282.378 244.42 281.301 245.565 280.105C246.709 278.908 247.736 278.071 247.854 278.191Z" fill="#263238"/>
<path d="M255.618 269.169C255.244 270.111 254.686 270.965 253.977 271.682C252.939 272.974 251.995 273.919 251.865 273.799C252.25 272.864 252.807 272.012 253.505 271.287C254.532 270.067 255.476 269.074 255.618 269.169Z" fill="#263238"/>
<path d="M261.635 258.904C261.529 259.919 261.19 260.894 260.644 261.752C260.269 262.7 259.684 263.547 258.933 264.228C259.162 263.243 259.561 262.308 260.113 261.465C260.474 260.53 260.989 259.664 261.635 258.904Z" fill="#263238"/>
<path d="M264.479 247.335C264.709 248.33 264.688 249.366 264.42 250.35C264.352 251.372 264.04 252.361 263.511 253.234C263.45 252.23 263.554 251.224 263.818 250.255C263.882 249.252 264.105 248.266 264.479 247.335Z" fill="#263238"/>
<path d="M263.629 235.456C264.152 236.328 264.452 237.319 264.502 238.339C264.745 239.333 264.745 240.372 264.502 241.366C264.131 240.431 263.915 239.441 263.865 238.435C263.628 237.461 263.548 236.455 263.629 235.456Z" fill="#263238"/>
<path d="M258.992 224.509C259.134 224.413 259.995 225.454 260.774 226.902C261.336 227.753 261.684 228.73 261.788 229.749C261.139 228.989 260.613 228.129 260.231 227.201C259.685 226.373 259.267 225.465 258.992 224.509Z" fill="#263238"/>
<path d="M250.768 216.014C251.73 216.32 252.604 216.858 253.317 217.581C254.579 218.658 255.405 219.735 255.287 219.855C255.169 219.974 254.107 219.113 252.927 218.06C251.747 217.007 250.662 216.158 250.768 216.014Z" fill="#263238"/>
<path d="M240.043 211.157C241.048 211.095 242.053 211.284 242.969 211.707C243.954 211.938 244.867 212.416 245.624 213.095C244.636 212.982 243.672 212.712 242.768 212.294C241.803 212.074 240.881 211.69 240.043 211.157Z" fill="#263238"/>
<path d="M228.314 210.619C229.217 210.163 230.221 209.948 231.229 209.997C232.23 209.847 233.252 209.954 234.202 210.308C233.244 210.561 232.253 210.666 231.264 210.619C230.287 210.776 229.291 210.776 228.314 210.619Z" fill="#263238"/>
<path d="M217.435 215.033C217.329 214.89 218.344 213.993 219.795 213.203C220.631 212.622 221.605 212.279 222.615 212.21C221.846 212.841 220.992 213.357 220.078 213.741C219.266 214.303 218.375 214.739 217.435 215.033Z" fill="#263238"/>
<path d="M209.329 223.623C209.586 222.632 210.085 221.723 210.781 220.979C211.784 219.651 212.822 218.778 212.94 218.898C213.058 219.017 212.244 220.094 211.264 221.362C210.285 222.63 209.471 223.707 209.329 223.623Z" fill="#263238"/>
<path d="M205.353 234.797C205.168 233.79 205.245 232.75 205.577 231.782C205.726 230.762 206.132 229.797 206.757 228.983C206.72 229.987 206.533 230.979 206.203 231.926C206.067 232.922 205.78 233.89 205.353 234.797Z" fill="#263238"/>
<path d="M206.757 246.582C206.132 245.768 205.726 244.803 205.577 243.782C205.238 242.816 205.157 241.776 205.341 240.768C205.75 241.681 206.032 242.647 206.179 243.639C206.511 244.586 206.706 245.578 206.757 246.582Z" fill="#263238"/>
<path d="M212.739 256.823C212.609 256.943 211.63 256.01 210.674 254.646C210.007 253.879 209.533 252.96 209.294 251.966C209.447 251.882 210.226 252.959 211.17 254.287C211.826 255.04 212.356 255.897 212.739 256.823Z" fill="#263238"/>
<path d="M221.423 264.898C220.471 264.574 219.603 264.034 218.887 263.319C217.601 262.278 216.716 261.261 216.834 261.13C217.734 261.555 218.556 262.134 219.264 262.841C220.527 263.87 221.53 264.755 221.423 264.898Z" fill="#263238"/>
<path d="M231.653 270.845C229.73 270.324 227.937 269.399 226.391 268.129C227.376 268.301 228.318 268.666 229.164 269.206C230.094 269.576 230.941 270.133 231.653 270.845Z" fill="#263238"/>
<path d="M242.886 274.47C241.885 274.586 240.871 274.463 239.925 274.111C238.928 273.961 237.981 273.571 237.164 272.974C238.158 272.989 239.142 273.171 240.078 273.513C241.063 273.66 242.013 273.984 242.886 274.47Z" fill="#263238"/>
<path d="M254.638 275.08C252.721 275.677 250.678 275.719 248.739 275.2C249.696 274.942 250.69 274.853 251.677 274.936C252.665 274.818 253.666 274.866 254.638 275.08Z" fill="#263238"/>
<path d="M265.989 272.005C264.367 273.199 262.444 273.901 260.443 274.027C261.275 273.476 262.193 273.071 263.157 272.83C264.048 272.393 265.005 272.114 265.989 272.005Z" fill="#263238"/>
<path d="M275.829 265.461C275.947 265.593 275.051 266.657 273.741 267.614C273.008 268.312 272.123 268.825 271.157 269.11C271.063 268.954 272.089 268.129 273.375 267.124C274.101 266.441 274.929 265.88 275.829 265.461Z" fill="#263238"/>
<path d="M283.511 256.416C283.238 257.397 282.741 258.299 282.059 259.048C281.08 260.388 280.101 261.31 279.971 261.202C279.841 261.094 280.608 260.005 281.576 258.677C282.543 257.35 283.357 256.321 283.511 256.416Z" fill="#263238"/>
<path d="M288.62 245.649C288.616 246.67 288.369 247.676 287.9 248.58C287.286 250.135 286.567 251.284 286.413 251.2C286.556 250.206 286.863 249.243 287.322 248.353C287.605 247.385 288.044 246.472 288.62 245.649Z" fill="#263238"/>
<path d="M290.909 233.937C291.165 235.948 290.888 237.992 290.106 239.859C290.074 237.855 290.344 235.857 290.909 233.937Z" fill="#263238"/>
<path d="M290.602 221.984C290.987 222.919 291.172 223.926 291.145 224.939C291.314 225.94 291.286 226.965 291.062 227.954C290.508 226.013 290.352 223.977 290.602 221.972V221.984Z" fill="#263238"/>
<path d="M288.077 210.308C288.624 211.159 288.989 212.116 289.151 213.119C289.506 214.065 289.666 215.075 289.623 216.086C289.081 215.232 288.716 214.276 288.549 213.275C288.193 212.329 288.032 211.319 288.077 210.308Z" fill="#263238"/>
<path d="M283.523 199.253C283.676 199.169 284.384 200.318 285.092 201.813C285.591 202.695 285.904 203.673 286.012 204.684C284.882 203.032 284.04 201.194 283.523 199.253Z" fill="#263238"/>
<path d="M277.717 188.833C277.871 188.737 278.649 189.826 279.475 191.225C280.049 192.047 280.451 192.98 280.655 193.965C279.921 193.291 279.324 192.479 278.897 191.572C278.333 190.745 277.932 189.815 277.717 188.833Z" fill="#263238"/>
<path d="M271.865 178.436C272.018 178.352 272.773 179.465 273.564 180.901C274.134 181.738 274.535 182.681 274.744 183.676C274.021 182.973 273.444 182.131 273.045 181.2C272.468 180.371 272.066 179.43 271.865 178.436Z" fill="#263238"/>
<path d="M267.251 167.429C268.32 169.132 269.023 171.044 269.316 173.04C268.692 172.244 268.241 171.322 267.995 170.336C267.555 169.429 267.302 168.439 267.251 167.429Z" fill="#263238"/>
<path d="M265.246 155.669C265.593 156.614 265.769 157.615 265.765 158.624C265.97 159.607 266.006 160.619 265.871 161.615C265.406 160.71 265.163 159.704 265.163 158.684C264.959 157.686 264.987 156.654 265.246 155.669Z" fill="#263238"/>
<path d="M266.225 143.765C266.319 144.767 266.247 145.778 266.013 146.756C265.97 147.765 265.751 148.757 265.364 149.687C265.135 148.692 265.135 147.656 265.364 146.66C265.422 145.64 265.717 144.648 266.225 143.765Z" fill="#263238"/>
<path d="M270.072 132.483C269.921 133.48 269.602 134.444 269.128 135.33C268.835 136.293 268.384 137.199 267.794 138.01C268.045 135.992 268.832 134.082 270.072 132.483Z" fill="#263238"/>
<path d="M276.644 122.565C276.773 122.684 275.995 123.761 275.004 125.065C274.012 126.369 273.175 127.458 273.033 127.302C273.313 126.32 273.823 125.421 274.52 124.682C275.523 123.366 276.526 122.457 276.644 122.565Z" fill="#263238"/>
<path d="M285.505 114.693C285.599 114.837 284.573 115.686 283.298 116.691C282.575 117.383 281.741 117.945 280.832 118.354C280.714 118.223 281.623 117.158 282.921 116.201C283.654 115.5 284.539 114.983 285.505 114.693Z" fill="#263238"/>
<path d="M296.006 109.285C295.211 109.89 294.322 110.355 293.375 110.661C292.511 111.154 291.568 111.49 290.59 111.654C290.508 111.498 291.629 110.757 293.139 110.099C294.015 109.595 294.999 109.316 296.006 109.285Z" fill="#263238"/>
<path d="M304.596 107.084C304.596 107.251 303.994 107.514 303.204 107.658C302.413 107.802 301.729 107.802 301.693 107.658C301.658 107.514 302.283 107.227 303.086 107.072C303.888 106.916 304.596 106.916 304.596 107.084Z" fill="#263238"/>
<path d="M328.643 71.8629C328.643 71.8629 342.495 61.8372 361.68 68.2737C361.68 68.2737 363.25 84.377 347.875 97.1783" fill="#92E3A9"/>
<path d="M284.95 101.605C285.54 102.502 300.584 127.016 300.584 127.016L345.74 98.805C347.603 97.6404 349.208 96.0959 350.453 94.2695C351.697 92.4431 352.554 90.3746 352.969 88.1949C353.384 86.0153 353.348 83.772 352.863 81.6073C352.378 79.4425 351.455 77.4034 350.153 75.6192C347.732 72.3074 344.146 70.0689 340.14 69.3692C336.134 68.6696 332.016 69.5626 328.643 71.8626L284.95 101.605Z" fill="#92E3A9"/>
<path d="M300.584 127.016L299.569 144.268C299.569 144.268 328.831 129.911 321.528 113.928L300.584 127.016Z" fill="#263238"/>
<path d="M305.87 87.3679C305.87 87.3679 286.024 78.4907 269.694 91.5074L284.95 101.605L305.87 87.3679Z" fill="#263238"/>
<path d="M305.776 101.616L277.54 119.562C277.54 119.562 278.508 122.649 279.263 122.386C280.018 122.122 301.127 109.465 308.006 105.337C308.269 105.179 308.495 104.964 308.669 104.709C308.842 104.453 308.959 104.163 309.012 103.857C309.065 103.552 309.052 103.238 308.974 102.938C308.896 102.638 308.755 102.359 308.56 102.119C308.237 101.705 307.775 101.426 307.262 101.333C306.749 101.241 306.221 101.341 305.776 101.616Z" fill="#263238"/>
<path d="M340.551 90.1399C341.694 85.2132 338.682 80.2795 333.823 79.1203C328.964 77.9611 324.098 81.0154 322.955 85.9421C321.812 90.8689 324.824 95.8025 329.683 96.9617C334.542 98.1209 339.408 95.0667 340.551 90.1399Z" fill="#FAFAFA"/>
<path d="M340.784 88.0376C340.713 88.0376 340.784 87.224 340.383 85.8362C339.856 83.8715 338.692 82.1437 337.079 80.9311C335.984 80.0975 334.711 79.5361 333.362 79.292C331.82 79.0133 330.232 79.1536 328.761 79.6988C327.116 80.2893 325.685 81.3692 324.655 82.7974C323.551 84.3153 322.955 86.1516 322.955 88.0376C322.955 89.9235 323.551 91.7598 324.655 93.2777C325.674 94.6986 327.087 95.7811 328.713 96.3883C330.185 96.9329 331.773 97.0732 333.315 96.7951C334.663 96.551 335.936 95.9896 337.032 95.156C338.642 93.9408 339.805 92.214 340.336 90.2509C340.701 88.8631 340.666 88.0376 340.737 88.0376C340.768 88.2357 340.768 88.4376 340.737 88.6357C340.733 89.2 340.666 89.762 340.536 90.3107C340.137 92.0528 339.247 93.6401 337.976 94.8801C336.705 96.1202 335.106 96.9599 333.374 97.2975C331.65 97.6397 329.866 97.4771 328.23 96.8288C326.594 96.1805 325.174 95.0733 324.135 93.6366C322.948 92.0182 322.306 90.0548 322.306 88.0376C322.306 86.0203 322.948 84.0569 324.135 82.4385C325.227 80.9256 326.745 79.7829 328.489 79.1604C329.951 78.6233 331.524 78.4721 333.06 78.7212C334.596 78.9702 336.044 79.6113 337.268 80.5841C338.958 81.877 340.144 83.7324 340.619 85.8243C340.749 86.373 340.816 86.9349 340.819 87.4992C340.834 87.6794 340.822 87.8609 340.784 88.0376Z" fill="#263238"/>
<path d="M351.793 94.199C351.675 94.199 351.545 92.4164 350.849 89.6288C350.437 87.9983 349.913 86.3992 349.279 84.8433C347.707 81.0452 345.486 77.5581 342.719 74.5425C341.585 73.3156 340.367 72.1721 339.073 71.1208C336.843 69.3382 335.297 68.4768 335.356 68.3691C335.75 68.5029 336.126 68.6836 336.477 68.9075C336.911 69.1357 337.333 69.3873 337.74 69.6612C338.212 69.9842 338.766 70.3192 339.333 70.7739C340.689 71.7858 341.956 72.9146 343.12 74.1476C346.003 77.163 348.272 80.7241 349.799 84.6279C350.422 86.215 350.916 87.8516 351.273 89.5211C351.45 90.227 351.521 90.885 351.616 91.4593C351.694 91.9465 351.745 92.4378 351.769 92.9308C351.837 93.3502 351.845 93.7773 351.793 94.199Z" fill="#263238"/>
<path d="M349.362 95.4671C349.244 95.4671 349.102 93.6606 348.394 90.8251C347.974 89.1708 347.442 87.5478 346.802 85.9678C345.997 84.0411 345.038 82.1845 343.934 80.4166C342.809 78.6651 341.547 77.0087 340.159 75.4636C339.008 74.2066 337.77 73.0352 336.454 71.9582C334.2 70.1278 332.631 69.2424 332.69 69.1348C333.104 69.2723 333.501 69.4612 333.87 69.6971C334.306 69.9299 334.727 70.1896 335.132 70.4747C335.616 70.7977 336.182 71.1566 336.749 71.6711C338.108 72.6965 339.387 73.8286 340.572 75.0568C342.011 76.6069 343.31 78.2845 344.454 80.0697C345.571 81.8715 346.53 83.769 347.321 85.7405C347.952 87.3556 348.454 89.02 348.819 90.7175C348.996 91.4353 349.067 92.1053 349.161 92.6795C349.248 93.1739 349.303 93.6734 349.327 94.175C349.386 94.603 349.398 95.0364 349.362 95.4671Z" fill="#263238"/>
<path d="M73.1431 475.845C72.1284 471.777 74.7832 467.709 77.7448 464.778C80.7064 461.847 84.2344 459.227 85.7919 455.339C88.3051 449.046 85.0131 440.85 89.3316 435.61C91.833 432.524 96.3167 431.519 98.535 428.217C99.5687 426.396 100.257 424.396 100.564 422.319C102.976 411.842 108.118 402.214 115.455 394.443C115.912 403.787 113.874 413.082 109.555 421.349C107.821 424.651 105.697 427.87 105.119 431.567C104.151 437.548 107.479 443.758 105.945 449.644C104.234 456.368 96.7533 460.842 96.3521 467.769C96.0217 473.643 101.072 478.812 100.623 484.674C100.313 487.165 99.419 489.544 98.0158 491.613C93.3905 499.09 86.8184 504.247 76.8717 504.019L64.6713 504.378L73.1431 475.845Z" fill="#92E3A9"/>
<g opacity="0.3">
<path d="M73.1431 475.845C72.1284 471.777 74.7832 467.709 77.7448 464.778C80.7064 461.847 84.2344 459.227 85.7919 455.339C88.3051 449.046 85.0131 440.85 89.3316 435.61C91.833 432.524 96.3167 431.519 98.535 428.217C99.5687 426.396 100.257 424.396 100.564 422.319C102.976 411.842 108.118 402.214 115.455 394.443C115.912 403.787 113.874 413.082 109.555 421.349C107.821 424.651 105.697 427.87 105.119 431.567C104.151 437.548 107.479 443.758 105.945 449.644C104.234 456.368 96.7533 460.842 96.3521 467.769C96.0217 473.643 101.072 478.812 100.623 484.674C100.313 487.165 99.419 489.544 98.0158 491.613C93.3905 499.09 86.8184 504.247 76.8717 504.019L64.6713 504.378L73.1431 475.845Z" fill="black"/>
</g>
<path d="M62.1935 504.689C61.0759 504.86 59.9371 504.827 58.8307 504.593C57.4827 504.384 56.1586 504.04 54.878 503.564C53.1115 502.926 51.4611 501.996 49.9931 500.813C49.1126 500.088 48.4268 499.15 47.9991 498.085C47.6374 496.887 47.4506 495.641 47.4445 494.388C47.4262 493.048 47.3396 491.711 47.1849 490.38C46.9548 488.967 46.4537 487.614 45.71 486.396C44.2941 483.824 41.9107 481.395 41.1674 477.902C40.424 474.409 40.9668 470.724 41.5567 467.075C42.1467 463.426 42.7366 459.322 41.3325 455.446C39.9284 451.57 37.3916 448.064 36.0819 443.697C34.7722 439.331 35.4212 434.557 35.1616 429.879C35.0942 427.506 34.5691 425.169 33.6159 423C32.6365 420.811 31.256 418.741 30.2295 416.432C28.0939 411.754 27.7399 406.478 27.1735 401.298C26.9021 398.69 26.619 396.046 26.3476 393.39C26.1799 390.71 25.737 388.056 25.0261 385.47C24.2215 382.858 23.2641 380.297 22.1589 377.801C21.584 376.507 21.1182 375.166 20.7666 373.793C20.5658 372.381 20.4397 370.959 20.389 369.534C20.2735 366.677 20.3998 363.815 20.7666 360.98C21.1087 358.132 21.6397 355.297 21.9465 352.438C21.9465 352.27 21.9465 352.103 21.9465 351.947L22.0055 351.385L22.501 351.636C25.0837 352.982 27.3217 354.92 29.0378 357.295C30.7172 359.611 32.064 362.156 33.0377 364.856C35.0436 370.18 35.7397 375.755 36.7427 381.067C37.7456 386.379 39.0081 391.631 41.6629 396.058C42.9962 398.271 44.6009 400.293 46.005 402.446C47.4984 404.549 48.5176 406.959 48.9902 409.505C49.6746 414.745 46.8074 419.327 47.3737 423.957C47.6687 426.238 48.4411 428.428 49.6392 430.382C50.7365 432.368 51.999 434.198 53.2497 436.053C54.5039 437.853 55.5902 439.767 56.4945 441.771C57.3578 443.737 57.8654 445.844 57.993 447.992C58.2644 452.168 57.6626 456.116 57.993 459.861C58.3073 463.418 59.3097 466.877 60.9428 470.042C62.3941 473.093 64.0224 475.856 65.3793 478.524C66.0565 479.811 66.667 481.133 67.2081 482.484C67.6956 483.746 68.0477 485.058 68.2583 486.396C68.5938 488.737 68.5938 491.114 68.2583 493.455C67.9208 496.724 66.6955 499.835 64.7185 502.44C64.4209 502.828 64.0892 503.189 63.7274 503.516C63.4861 503.774 63.217 504.002 62.925 504.198L62.2289 504.689C63.0981 503.98 63.8892 503.177 64.5887 502.296C66.4825 499.687 67.6445 496.607 67.9515 493.383C68.2396 491.068 68.1999 488.724 67.8335 486.42C67.6141 485.11 67.2582 483.826 66.7716 482.592C66.2642 481.312 65.5917 480.02 64.9427 478.692C63.5622 476.048 61.9221 473.296 60.4354 470.221C58.7561 467.004 57.7177 463.484 57.3794 459.861C57.0727 456.044 57.6626 452.084 57.3794 448.004C57.254 445.94 56.7665 443.914 55.9399 442.023C55.0411 440.057 53.9669 438.179 52.7305 436.412C51.5506 434.569 50.2055 432.727 49.0728 430.705C47.8523 428.66 47.0722 426.377 46.7838 424.005C46.2292 419.064 49.0728 414.434 48.3649 409.589C47.8995 407.157 46.9081 404.861 45.4623 402.865C44.0818 400.747 42.4653 398.726 41.0966 396.464C38.3591 391.906 37.0376 386.57 36.0583 381.222C35.079 375.875 34.3474 370.359 32.377 365.143C31.4296 362.516 30.1186 360.038 28.4832 357.785C26.8394 355.513 24.699 353.658 22.2297 352.366L22.796 352.043L22.737 352.545C22.4067 355.44 21.8875 358.276 21.5571 361.087C21.1906 363.882 21.0643 366.705 21.1795 369.522C21.2503 370.898 21.3329 372.345 21.5335 373.649C21.8831 374.971 22.3328 376.263 22.8786 377.514C23.997 380.037 24.9662 382.626 25.7812 385.266C26.4905 387.889 26.9294 390.579 27.0909 393.294C27.3741 395.95 27.6455 398.594 27.9169 401.202C28.4714 406.406 28.8254 411.599 30.8785 416.109C31.905 418.358 33.2383 420.428 34.253 422.701C35.2409 424.966 35.7858 427.404 35.8577 429.879C36.0937 434.665 35.4565 439.319 36.7073 443.554C37.958 447.789 40.5892 451.283 41.9107 455.29C43.2322 459.298 42.7012 463.498 42.0995 467.194C41.4977 470.891 40.9196 474.54 41.6511 477.83C42.3827 481.12 44.6363 483.573 46.0876 486.205C46.8491 487.472 47.3582 488.878 47.5861 490.344C47.7378 491.691 47.8166 493.045 47.8221 494.4C47.8103 495.615 47.9774 496.824 48.3177 497.989C48.7198 499.006 49.3644 499.907 50.1937 500.609C51.6088 501.781 53.203 502.71 54.9134 503.361C56.1728 503.856 57.477 504.224 58.8071 504.462C59.6255 504.612 60.4537 504.7 61.285 504.725C61.8985 504.677 62.1935 504.689 62.1935 504.689Z" fill="#263238"/>
<path d="M24.4715 358.778C24.526 358.896 24.5657 359.021 24.5895 359.149C24.6485 359.448 24.7429 359.807 24.8491 360.262C25.0851 361.243 25.3565 362.714 25.8048 364.557C26.2532 366.399 27.3741 368.469 28.3063 371.029C29.2384 373.59 30.2531 376.509 31.1499 379.811C32.0466 383.113 32.8726 386.786 33.7103 390.71C34.4231 394.923 35.7138 399.014 37.545 402.865C38.5362 404.875 39.6453 406.921 40.5302 409.146C41.3939 411.433 41.9726 413.82 42.2529 416.252C42.8386 421.287 43.6853 426.287 44.7897 431.231C47.1496 441.376 49.5094 451.043 51.5271 459.849C53.5447 468.654 55.5624 476.526 57.1789 483.19C58.7954 489.854 60.0225 495.154 60.9192 498.934L61.8985 503.229C61.9929 503.684 62.0755 504.055 62.1345 504.354C62.1476 504.481 62.1476 504.609 62.1345 504.737C62.0745 504.62 62.0309 504.495 62.0047 504.366L61.6862 503.265C61.4148 502.236 61.0372 500.813 60.5062 499.006L56.5181 483.322C54.8662 476.67 52.8958 468.774 50.7129 460.028C48.5301 451.282 46.3236 441.556 43.9048 431.399C42.8296 426.417 42.0182 421.381 41.4742 416.312C41.2174 413.937 40.6623 411.605 39.8223 409.373C38.9727 407.208 37.8754 405.174 36.8843 403.14C35.061 399.259 33.7783 395.14 33.0731 390.901C32.259 386.965 31.492 383.304 30.6189 380.014C29.7458 376.724 28.8254 373.769 27.8933 371.233C26.9612 368.696 25.9582 366.579 25.5335 364.676C25.1087 362.774 24.8963 361.339 24.7193 360.346C24.6367 359.891 24.5777 359.508 24.5305 359.209C24.4909 359.069 24.4711 358.924 24.4715 358.778Z" fill="#263238"/>
<path d="M60.0343 504.713C52.0934 499.868 49.887 485.284 53.2615 476.526C56.6361 467.769 62.5003 459.777 63.4442 450.445C64.1758 443.267 61.8985 435.873 63.5858 428.91C65.8749 419.435 75.0428 412.161 74.9956 402.398C74.9956 396.931 71.9278 391.763 72.1992 386.295C72.5414 379.595 77.6386 374.331 80.8126 368.421C85.6739 359.412 86.0515 348.729 87.7505 338.607C89.4496 328.486 93.3197 317.647 102.205 312.718C103.467 321.332 105.673 327.242 104.907 338.895C104.623 343.07 99.7857 351.062 99.0777 360.226C98.6648 365.705 98.358 371.197 98.004 376.688C97.6501 382.18 97.2725 387.456 95.361 392.445C93.8979 396.261 91.5499 399.719 90.4525 403.667C88.3877 411.096 91.0071 419.16 89.2726 426.685C87.8567 433.062 83.4674 438.529 82.5353 444.99C81.2374 454.082 86.9836 463.557 83.963 472.219C82.4645 476.514 78.9601 479.948 77.9454 484.386C77.1549 487.832 77.9454 491.481 77.2611 494.938C76.0811 500.514 65.5799 504.785 59.9753 504.414" fill="#92E3A9"/>
<path d="M99.9627 321.188C99.9784 321.352 99.9784 321.516 99.9627 321.679C99.9627 322.038 99.8565 322.504 99.7739 323.091C99.5851 324.287 99.3727 326.153 98.9479 328.51C98.5232 330.867 97.2607 333.547 96.2813 336.753C95.302 339.96 94.2165 343.656 93.2961 347.808C92.3758 351.959 91.5852 356.53 90.7593 361.459C89.9334 366.388 89.0248 371.759 86.5824 376.892C85.4025 379.464 84.2226 382.048 83.2314 384.788C82.2988 387.611 81.7161 390.541 81.4969 393.51C81.0189 399.819 80.2036 406.097 79.0545 412.317C76.5413 425.046 74.1579 437.178 71.975 448.208L65.8866 477.448C64.1286 485.727 62.7009 492.438 61.7097 497.14C61.2024 499.425 60.813 501.22 60.5298 502.488L60.2112 503.876C60.1783 504.035 60.1309 504.192 60.0696 504.342C60.0563 504.183 60.0563 504.023 60.0696 503.864C60.1404 503.505 60.223 503.038 60.3174 502.452C60.5652 501.172 60.9074 499.377 61.3557 497.08C62.2879 492.367 63.633 485.631 65.2849 477.328C66.9368 469.025 68.978 459.059 71.1845 448.053L78.264 412.161C79.4021 405.964 80.2174 399.71 80.7064 393.426C80.9332 390.394 81.5358 387.404 82.4999 384.525C83.4792 381.725 84.7653 379.129 85.898 376.581C88.3287 371.532 89.2018 366.244 90.0867 361.327C90.9717 356.41 91.7622 351.756 92.7416 347.664C93.7209 343.573 94.771 339.816 95.8448 336.61C96.9185 333.403 98.1338 330.736 98.6176 328.427C99.1013 326.118 99.3609 324.275 99.5969 323.055C99.7031 322.469 99.7975 322.014 99.8565 321.655C99.8796 321.497 99.9151 321.341 99.9627 321.188Z" fill="#263238"/>
<path d="M459.684 316.439H451.46V343.381H459.684V316.439Z" fill="#92E3A9"/>
<path d="M474.823 305.349H466.599V343.37H474.823V305.349Z" fill="#92E3A9"/>
<path d="M490.929 300.168H482.705V343.369H490.929V300.168Z" fill="#92E3A9"/>
<path d="M507.046 294.712H498.822V343.381H507.046V294.712Z" fill="#92E3A9"/>
<path d="M174.239 351.421C174.855 351.508 175.453 351.698 176.008 351.983C177.314 352.629 178.408 353.643 179.159 354.903C179.91 356.164 180.287 357.617 180.244 359.089C180.208 360.478 179.8 361.83 179.064 363.002C178.248 364.304 177.07 365.332 175.678 365.957C174.183 366.63 172.513 366.797 170.917 366.433C169.321 366.069 167.883 365.193 166.817 363.935C166.324 363.344 165.925 362.678 165.637 361.961C165.331 361.279 165.136 360.552 165.059 359.807C164.888 358.427 165.088 357.026 165.637 355.751C166.213 354.4 167.165 353.247 168.376 352.433C169.586 351.62 171.004 351.181 172.457 351.169C173.08 351.146 173.703 351.231 174.297 351.421C174.297 351.421 173.637 351.289 172.469 351.337C170.804 351.404 169.211 352.041 167.95 353.143C167.081 353.889 166.397 354.831 165.955 355.895C165.455 357.116 165.28 358.448 165.448 359.759C165.534 360.462 165.725 361.148 166.014 361.793C166.306 362.476 166.704 363.106 167.194 363.66C168.208 364.841 169.568 365.662 171.075 366.004C172.582 366.347 174.158 366.191 175.572 365.562C176.247 365.27 176.869 364.866 177.412 364.365C177.952 363.907 178.418 363.366 178.793 362.762C179.342 361.888 179.706 360.908 179.862 359.884C180.018 358.859 179.962 357.813 179.698 356.812C179.434 355.811 178.968 354.876 178.328 354.068C177.689 353.259 176.891 352.594 175.985 352.114C174.887 351.552 174.227 351.421 174.239 351.421Z" fill="#263238"/>
<path d="M180.232 343.273C180.227 343.186 180.227 343.098 180.232 343.01C180.232 342.807 180.232 342.544 180.232 342.197C180.232 341.455 180.232 340.39 180.232 339.002L180.291 339.074L173.483 337.567L173.601 337.507L171.808 341.371V341.443H171.725C170.218 341.509 168.726 341.779 167.289 342.244H167.206L167.147 342.185L164.15 339.182H164.186L158.286 342.986L158.357 342.783L159.773 346.803V346.898L159.702 346.982C158.684 348.107 157.815 349.362 157.118 350.715V350.811H157.106H152.906L153.083 350.655C152.611 352.82 152.091 355.153 151.572 357.546L151.466 357.319L155.265 359.149L155.372 359.209V359.329C155.438 360.851 155.696 362.359 156.139 363.815V363.935L156.044 364.031L153.071 367.057V366.794L156.799 372.776L156.552 372.68L160.516 371.245H160.646L160.74 371.329C161.838 372.365 163.068 373.246 164.398 373.949C164.457 374.032 164.292 373.757 164.516 374.14V378.399L164.351 378.184L171.147 379.739L170.911 379.859C171.513 378.555 172.091 377.275 172.716 375.994L172.775 375.887H172.905C174.404 375.829 175.888 375.568 177.318 375.109H177.448L177.53 375.193L180.516 378.22H180.256L186.156 374.451L186.073 374.678C185.589 373.315 185.129 371.975 184.657 370.659V370.551L184.74 370.455C185.764 369.337 186.637 368.086 187.336 366.734V366.639H191.654L191.489 366.782C192.032 364.39 192.539 362.069 193.023 359.879L193.117 360.071L189.318 358.228H189.235V358.132C189.184 356.605 188.93 355.092 188.48 353.634V353.55V353.49L191.465 350.464V350.631L187.76 344.649H187.878L183.902 346.049C183.067 345.264 182.163 344.56 181.2 343.943L180.468 343.501L180.232 343.345L180.492 343.465L181.235 343.872C182.22 344.468 183.145 345.162 183.996 345.941H183.926L187.878 344.482H187.949V344.554L191.701 350.535V350.619L191.63 350.703L188.669 353.73V353.586C189.137 355.07 189.403 356.612 189.459 358.168L189.377 358.037L193.188 359.855L193.306 359.915V360.047C192.834 362.224 192.327 364.509 191.796 366.938V367.081H187.442L187.607 366.986C186.897 368.367 186.008 369.647 184.964 370.79V370.599C185.424 371.915 185.908 373.255 186.38 374.619L186.439 374.774L186.297 374.858L180.398 378.638L180.256 378.734L180.138 378.614L177.153 375.6H177.365C175.897 376.072 174.373 376.342 172.834 376.401L173.011 376.282C172.421 377.55 171.831 378.842 171.206 380.134L171.135 380.289H170.97L164.174 378.746H164.009V374.152C164.233 374.535 164.009 374.26 164.127 374.343C162.763 373.625 161.501 372.724 160.374 371.664H160.587L156.622 373.087L156.457 373.147L156.375 373.003L152.646 367.022L152.552 366.878L152.67 366.758L155.643 363.732V363.947C155.181 362.457 154.916 360.913 154.852 359.353L154.97 359.52L151.206 357.75L151.065 357.678V357.522L152.599 350.631V350.476H157.106L156.953 350.571C157.662 349.193 158.551 347.917 159.596 346.779V346.958L158.192 342.926V342.795L158.31 342.723L164.209 338.954L164.315 338.895L164.41 338.978L167.383 342.005H167.242C168.703 341.542 170.219 341.28 171.749 341.228L171.643 341.299L173.472 337.447V337.363H173.554L180.339 338.954H180.398C180.398 340.33 180.398 341.347 180.398 342.125C180.398 342.472 180.398 342.747 180.398 342.938C180.351 343.054 180.295 343.166 180.232 343.273Z" fill="#263238"/>
<path fill-rule="evenodd" clip-rule="evenodd" d="M167.395 289.604C168.885 290.393 170.266 291.379 171.501 292.535L175.89 290.956L180.008 297.548L176.728 300.898C177.231 302.527 177.521 304.216 177.589 305.922L181.79 307.944L180.103 315.529H175.454C174.671 317.041 173.695 318.441 172.551 319.693L174.121 324.143L167.607 328.319L164.304 325.1C162.7 325.609 161.038 325.903 159.36 325.974L157.366 330.233L149.85 328.522V323.808C148.358 323.017 146.977 322.027 145.743 320.865L141.354 322.456L137.224 315.852L140.516 312.514C140.015 310.885 139.726 309.195 139.655 307.49L135.455 305.468L137.13 297.847H141.767C142.543 296.334 143.515 294.934 144.658 293.683L143.112 289.209L149.614 285.022L152.917 288.36C154.524 287.85 156.191 287.556 157.873 287.486L159.867 283.227L167.383 284.938V289.652L167.395 289.604ZM160.764 298.577C159.17 298.215 157.507 298.34 155.983 298.937C154.46 299.534 153.145 300.575 152.206 301.929C151.266 303.283 150.743 304.89 150.703 306.545C150.663 308.2 151.108 309.83 151.982 311.229C152.856 312.628 154.119 313.733 155.611 314.405C157.104 315.076 158.76 315.283 160.369 315.001C161.978 314.719 163.468 313.959 164.652 312.818C165.835 311.677 166.658 310.206 167.017 308.59C167.256 307.516 167.284 306.405 167.098 305.321C166.913 304.236 166.519 303.199 165.938 302.269C165.357 301.339 164.601 300.534 163.714 299.9C162.826 299.267 161.823 298.817 160.764 298.577Z" fill="#92E3A9"/>
<g opacity="0.8">
<path fill-rule="evenodd" clip-rule="evenodd" d="M167.395 289.604C168.885 290.393 170.266 291.379 171.501 292.535L175.89 290.956L180.008 297.548L176.728 300.898C177.231 302.527 177.521 304.216 177.589 305.922L181.79 307.944L180.103 315.529H175.454C174.671 317.041 173.695 318.441 172.551 319.693L174.121 324.143L167.607 328.319L164.304 325.1C162.7 325.609 161.038 325.903 159.36 325.974L157.366 330.233L149.85 328.522V323.808C148.358 323.017 146.977 322.027 145.743 320.865L141.354 322.456L137.224 315.852L140.516 312.514C140.015 310.885 139.726 309.195 139.655 307.49L135.455 305.468L137.13 297.847H141.767C142.543 296.334 143.515 294.934 144.658 293.683L143.112 289.209L149.614 285.022L152.917 288.36C154.524 287.85 156.191 287.556 157.873 287.486L159.867 283.227L167.383 284.938V289.652L167.395 289.604ZM160.764 298.577C159.17 298.215 157.507 298.34 155.983 298.937C154.46 299.534 153.145 300.575 152.206 301.929C151.266 303.283 150.743 304.89 150.703 306.545C150.663 308.2 151.108 309.83 151.982 311.229C152.856 312.628 154.119 313.733 155.611 314.405C157.104 315.076 158.76 315.283 160.369 315.001C161.978 314.719 163.468 313.959 164.652 312.818C165.835 311.677 166.658 310.206 167.017 308.59C167.256 307.516 167.284 306.405 167.098 305.321C166.913 304.236 166.519 303.199 165.938 302.269C165.357 301.339 164.601 300.534 163.714 299.9C162.826 299.267 161.823 298.817 160.764 298.577Z" fill="white"/>
</g>
<path fill-rule="evenodd" clip-rule="evenodd" d="M140.21 334.516C141.067 334.974 141.86 335.545 142.569 336.215L145.13 335.294L147.49 339.134L145.578 341.084C145.873 342.03 146.043 343.012 146.086 344.003L148.528 345.2L147.667 349.626H144.953C144.499 350.494 143.936 351.298 143.277 352.019L144.186 354.603L140.387 356.996L138.475 355.058C137.537 355.352 136.565 355.52 135.584 355.56L134.404 358.049L130.027 357.044V354.304C129.168 353.844 128.374 353.268 127.667 352.593L125.107 353.514L122.747 349.674L124.658 347.724C124.368 346.777 124.201 345.796 124.163 344.805L121.709 343.608L122.688 339.17H125.248C125.708 338.303 126.275 337.498 126.936 336.777L126.027 334.193L129.815 331.8L131.738 333.75C132.67 333.446 133.638 333.273 134.617 333.236L135.797 330.759L140.174 331.752V334.504L140.21 334.516ZM136.351 339.732C135.422 339.519 134.451 339.59 133.562 339.936C132.673 340.282 131.905 340.888 131.355 341.677C130.806 342.466 130.499 343.403 130.475 344.368C130.451 345.334 130.71 346.285 131.219 347.102C131.728 347.918 132.465 348.563 133.336 348.955C134.207 349.346 135.172 349.467 136.111 349.302C137.05 349.137 137.919 348.693 138.609 348.026C139.298 347.36 139.777 346.501 139.985 345.558C140.264 344.297 140.037 342.976 139.356 341.884C138.675 340.791 137.594 340.018 136.351 339.732Z" fill="#92E3A9"/>
<g opacity="0.4">
<path fill-rule="evenodd" clip-rule="evenodd" d="M140.21 334.516C141.067 334.974 141.86 335.545 142.569 336.215L145.13 335.294L147.49 339.134L145.578 341.084C145.873 342.03 146.043 343.012 146.086 344.003L148.528 345.2L147.667 349.626H144.953C144.499 350.494 143.936 351.298 143.277 352.019L144.186 354.603L140.387 356.996L138.475 355.058C137.537 355.352 136.565 355.52 135.584 355.56L134.404 358.049L130.027 357.044V354.304C129.168 353.844 128.374 353.268 127.667 352.593L125.107 353.514L122.747 349.674L124.658 347.724C124.368 346.777 124.201 345.796 124.163 344.805L121.709 343.608L122.688 339.17H125.248C125.708 338.303 126.275 337.498 126.936 336.777L126.027 334.193L129.815 331.8L131.738 333.75C132.67 333.446 133.638 333.273 134.617 333.236L135.797 330.759L140.174 331.752V334.504L140.21 334.516ZM136.351 339.732C135.422 339.519 134.451 339.59 133.562 339.936C132.673 340.282 131.905 340.888 131.355 341.677C130.806 342.466 130.499 343.403 130.475 344.368C130.451 345.334 130.71 346.285 131.219 347.102C131.728 347.918 132.465 348.563 133.336 348.955C134.207 349.346 135.172 349.467 136.111 349.302C137.05 349.137 137.919 348.693 138.609 348.026C139.298 347.36 139.777 346.501 139.985 345.558C140.264 344.297 140.037 342.976 139.356 341.884C138.675 340.791 137.594 340.018 136.351 339.732Z" fill="white"/>
</g>
<path d="M400.795 290.489C403.269 289.767 405.435 288.227 406.946 286.113C408.458 283.999 409.229 281.434 409.137 278.824C408.995 276.431 408.134 274.206 408.228 271.861C408.381 268.272 410.765 265.15 412.558 261.991C414.352 258.833 415.544 254.681 413.455 251.714C412.11 249.788 409.715 248.927 408.075 247.252C406.435 245.577 405.715 243.34 404.842 241.198C403.969 239.057 402.871 236.843 400.889 235.707C398.907 234.57 395.874 235.061 395.06 237.226" fill="#263238"/>
<path d="M379.367 231.471C382.907 229.186 383.757 223.91 381.833 220.142C379.91 216.373 375.851 214.076 371.721 213.394C368.717 212.931 365.647 213.194 362.761 214.163C359.876 215.132 357.258 216.779 355.12 218.969C352.843 221.362 350.99 224.461 347.899 225.549C345.185 226.518 342.176 225.645 339.321 226.028C337.417 226.377 335.614 227.153 334.044 228.3C332.474 229.447 331.177 230.935 330.247 232.656C328.419 236.117 327.322 239.927 327.026 243.842C326.613 247.431 326.33 251.319 323.899 253.915C321.469 256.512 317.752 256.99 314.802 258.797C312.085 260.612 310.177 263.434 309.484 266.657C308.792 269.881 309.371 273.252 311.097 276.048C312.277 277.771 313.953 279.362 314.082 281.456C314.212 283.55 312.997 285.045 312.419 286.912C312.121 288.091 312.076 289.322 312.288 290.521C312.499 291.72 312.961 292.859 313.643 293.861C314.325 294.863 315.211 295.706 316.242 296.331C317.272 296.957 318.423 297.351 319.616 297.488C322.071 297.631 324.69 296.662 326.896 297.775C329.103 298.887 329.893 301.555 331.286 303.589C332.723 305.551 334.781 306.953 337.115 307.563C339.449 308.172 341.918 307.952 344.111 306.939C345.917 306.042 347.651 304.546 349.622 304.702C351.592 304.857 353.161 306.568 355.167 306.951C357.751 307.453 360.194 305.527 361.728 303.362C363.261 301.196 364.335 298.648 366.294 296.877C368.866 294.556 372.477 293.994 375.733 292.858C379.332 291.596 382.622 289.567 385.38 286.905C388.139 284.244 390.302 281.014 391.724 277.432C393.145 273.851 393.792 270.002 393.621 266.145C393.449 262.288 392.464 258.513 390.73 255.076" fill="#263238"/>
<path d="M387.19 236.173C388.597 236.329 389.895 237.013 390.828 238.092C391.761 239.171 392.26 240.565 392.228 242L388.854 319.37C388.712 328.51 375.544 333.642 365.893 333.415C356.147 333.188 355.84 328.342 355.71 319.645C355.509 305.121 355.533 299.665 355.521 299.749C355.509 299.833 343.215 297.655 340.701 281.361C339.451 273.249 339.875 259.969 340.572 249.118C341.209 239.344 347.651 227.368 357.22 228.421L387.19 236.173Z" fill="#FFBE9D"/>
<path d="M344.052 259.658C344.049 260.202 344.253 260.727 344.623 261.122C344.992 261.517 345.498 261.751 346.035 261.776C346.296 261.797 346.56 261.765 346.809 261.681C347.058 261.598 347.289 261.465 347.486 261.29C347.684 261.115 347.846 260.901 347.961 260.662C348.076 260.423 348.144 260.163 348.158 259.897C348.168 259.353 347.967 258.827 347.599 258.431C347.231 258.035 346.724 257.802 346.188 257.78C345.926 257.759 345.662 257.791 345.412 257.874C345.162 257.957 344.931 258.09 344.732 258.265C344.533 258.44 344.371 258.653 344.254 258.892C344.137 259.131 344.069 259.392 344.052 259.658Z" fill="#263238"/>
<path d="M343.344 256.033C343.604 256.308 345.161 255.136 347.38 255.148C349.598 255.16 351.214 256.285 351.462 256.009C351.71 255.734 351.321 255.399 350.613 254.873C349.654 254.196 348.512 253.836 347.344 253.844C346.192 253.834 345.068 254.199 344.135 254.885C343.451 255.411 343.215 255.914 343.344 256.033Z" fill="#263238"/>
<path d="M366.152 259.658C366.149 260.202 366.353 260.727 366.723 261.122C367.092 261.517 367.598 261.751 368.135 261.776C368.396 261.797 368.659 261.765 368.909 261.681C369.158 261.598 369.388 261.465 369.586 261.29C369.784 261.115 369.946 260.901 370.061 260.662C370.176 260.423 370.243 260.163 370.258 259.897C370.268 259.351 370.066 258.823 369.695 258.427C369.324 258.031 368.814 257.798 368.276 257.78C368.014 257.759 367.751 257.791 367.502 257.874C367.253 257.958 367.022 258.091 366.824 258.266C366.626 258.441 366.465 258.654 366.35 258.893C366.234 259.132 366.167 259.392 366.152 259.658Z" fill="#263238"/>
<path d="M365.137 256.5C365.397 256.775 366.955 255.603 369.173 255.615C371.391 255.627 373.008 256.811 373.255 256.476C373.503 256.141 373.114 255.866 372.406 255.34C371.447 254.662 370.306 254.303 369.137 254.311C367.986 254.307 366.863 254.671 365.928 255.352C365.244 255.89 365.008 256.38 365.137 256.5Z" fill="#263238"/>
<path d="M357.055 273.154C355.907 272.783 354.718 272.558 353.515 272.484C352.949 272.424 352.406 272.304 352.335 271.921C352.289 271.328 352.425 270.734 352.725 270.222C353.256 268.835 353.822 267.375 354.4 265.856C356.76 259.635 358.436 254.514 358.188 254.43C357.94 254.346 355.828 259.3 353.468 265.509C352.914 267.052 352.371 268.512 351.863 269.911C351.5 270.6 351.391 271.398 351.557 272.161C351.638 272.363 351.764 272.545 351.926 272.69C352.088 272.835 352.28 272.941 352.489 272.998C352.804 273.087 353.129 273.135 353.456 273.142C354.651 273.296 355.86 273.3 357.055 273.154Z" fill="#263238"/>
<path d="M355.462 299.749C363.027 299.886 370.481 297.894 376.996 293.994C376.996 293.994 371.544 305.479 355.462 303.912V299.749Z" fill="#EB996E"/>
<path d="M357.975 278.573C358.395 278.044 358.939 277.63 359.558 277.369C360.176 277.107 360.849 277.007 361.515 277.077C362.004 277.121 362.48 277.265 362.912 277.502C363.344 277.738 363.724 278.062 364.028 278.453C364.319 278.831 364.491 279.288 364.523 279.766C364.554 280.243 364.444 280.72 364.205 281.133C363.846 281.534 363.377 281.818 362.859 281.95C362.34 282.082 361.795 282.056 361.291 281.875C360.246 281.491 359.285 280.906 358.459 280.152C358.216 279.965 358.004 279.739 357.834 279.482C357.752 279.358 357.708 279.212 357.708 279.063C357.708 278.914 357.752 278.769 357.834 278.645" fill="#92E3A9"/>
<path d="M363.592 274.721C363.226 274.721 363.214 277.114 361.149 278.872C359.084 280.631 356.524 280.32 356.512 280.667C356.512 280.81 357.079 281.133 358.164 281.169C359.573 281.198 360.946 280.714 362.034 279.806C363.085 278.942 363.763 277.698 363.922 276.336C364.005 275.319 363.733 274.709 363.592 274.721Z" fill="#263238"/>
<path d="M364.146 252.564C364.359 253.174 366.577 252.887 369.173 253.21C371.769 253.533 373.893 254.263 374.223 253.712C374.388 253.449 374.022 252.875 373.173 252.277C372.04 251.554 370.761 251.1 369.431 250.949C368.101 250.797 366.754 250.953 365.491 251.403C364.536 251.786 364.052 252.277 364.146 252.564Z" fill="#263238"/>
<path d="M344.17 249.525C344.56 250.04 346.094 249.525 347.922 249.525C349.751 249.525 351.321 249.872 351.675 249.346C351.84 249.083 351.592 248.568 350.908 248.09C349.998 247.504 348.937 247.209 347.86 247.241C346.783 247.273 345.741 247.631 344.867 248.269C344.218 248.748 344.005 249.274 344.17 249.525Z" fill="#263238"/>
<path d="M376.571 230.874C378.401 229.575 380.484 228.689 382.68 228.276C384.877 227.863 387.135 227.933 389.302 228.481C393.585 229.677 397.137 233.649 397.29 238.052C397.385 240.923 396.11 244.034 397.42 246.582C398.73 249.131 401.562 250.052 403.662 251.846C405.271 253.273 406.364 255.204 406.766 257.333C407.168 259.462 406.856 261.666 405.88 263.595C404.122 266.861 400.441 269.254 400.134 272.938C399.839 276.408 402.718 279.339 403.426 282.749C404.193 286.505 402.14 290.394 399.202 292.894C396.264 295.395 392.535 296.77 388.901 298.086C386.069 299.127 383.002 300.18 380.087 299.498C378.366 299.03 376.819 298.055 375.643 296.696C374.467 295.338 373.715 293.657 373.48 291.865C373.304 290.079 373.512 288.275 374.088 286.578C374.665 284.88 375.596 283.329 376.819 282.031C378.884 279.722 381.786 277.772 382.282 274.721C383.049 269.936 377.479 266.095 377.822 261.31C377.999 258.845 379.721 256.799 381.149 254.765C382.577 252.732 383.827 250.183 382.943 247.874C381.763 244.859 377.904 244.07 375.544 241.892C374.572 240.964 373.872 239.78 373.524 238.473C373.176 237.165 373.194 235.785 373.574 234.487C374.003 233.19 374.773 232.036 375.799 231.149C376.826 230.261 378.072 229.674 379.403 229.45" fill="#263238"/>
<path d="M378.305 227.201C378.313 228.839 377.964 230.459 377.284 231.945C376.603 233.431 375.608 234.747 374.368 235.798C373.128 236.849 371.675 237.61 370.113 238.027C368.55 238.443 366.915 238.505 365.326 238.207C362.872 237.753 360.182 236.497 358.058 237.825C355.934 239.153 355.698 242.61 353.751 244.369C350.92 246.869 346.424 244.524 342.825 245.565C340.052 246.403 338.318 249.083 336.466 251.356C334.613 253.629 331.864 255.77 329.079 254.945C329.163 252.405 329.535 249.884 330.188 247.432C330.853 244.964 332.337 242.805 334.389 241.318C335.603 240.677 336.785 239.974 337.929 239.212C340.288 237.334 340.772 234.044 342.188 231.412C343.125 229.718 344.446 228.274 346.042 227.2C347.639 226.127 349.464 225.454 351.368 225.239C354.53 224.916 357.787 225.873 360.807 225.083C363.084 224.509 365.079 223.013 367.379 222.559C371.875 221.697 376.052 224.952 379.308 228.218" fill="#263238"/>
<path d="M407.65 266.142C407.946 265.564 408.073 264.913 408.016 264.264C407.87 263.394 407.49 262.581 406.918 261.916C406.345 261.251 405.602 260.759 404.771 260.496C403.617 260.082 402.434 259.758 401.231 259.527C399.796 259.262 398.432 258.691 397.231 257.852C396.59 257.326 396.071 256.663 395.712 255.91C395.353 255.157 395.163 254.333 395.155 253.497C395.137 251.786 395.22 250.077 395.402 248.376C395.449 247.536 395.406 246.694 395.273 245.864C395.118 245.088 394.795 244.357 394.329 243.722C393.272 242.62 391.931 241.841 390.459 241.473C389.078 241.072 387.753 240.493 386.518 239.75C385.443 239.097 384.465 238.291 383.615 237.358C382.373 236.019 381.41 234.44 380.783 232.716C380.604 232.254 380.466 231.778 380.37 231.292C380.299 230.957 380.276 230.789 380.299 230.777C380.323 230.766 380.512 231.459 380.996 232.632C381.865 234.675 383.186 236.489 384.858 237.93C386.53 239.372 388.507 240.405 390.636 240.947C392.217 241.326 393.658 242.156 394.789 243.339C395.321 244.045 395.692 244.863 395.874 245.732C396.016 246.61 396.063 247.5 396.016 248.388C395.84 250.069 395.753 251.758 395.756 253.449C395.755 254.203 395.918 254.948 396.234 255.631C396.551 256.313 397.012 256.917 397.585 257.397C398.716 258.194 399.998 258.744 401.349 259.012C402.555 259.271 403.739 259.627 404.889 260.077C405.879 260.46 406.745 261.115 407.39 261.967C407.859 262.623 408.141 263.397 408.204 264.204C408.236 264.717 408.134 265.228 407.91 265.688C407.803 266.023 407.662 266.154 407.65 266.142Z" fill="#455A64"/>
<path d="M313.032 276.312L312.761 276.181C312.517 276.026 312.312 275.817 312.159 275.57C311.936 275.051 311.849 274.481 311.907 273.917C311.965 273.353 312.166 272.814 312.49 272.352C312.89 271.635 313.489 271.053 314.212 270.677C315.05 270.255 315.913 269.888 316.796 269.577C317.788 269.241 318.706 268.713 319.498 268.021C320.302 267.169 320.84 266.095 321.044 264.935C321.304 263.738 321.386 262.374 321.61 260.987C321.779 259.497 322.328 258.079 323.203 256.871C325.067 254.383 328.135 253.055 330.424 250.71C331.567 249.476 332.425 248.001 332.938 246.391C333.483 244.691 333.878 242.945 334.117 241.175C334.613 237.585 335.12 233.589 337.492 230.311C338.648 228.664 340.384 227.529 342.341 227.141C344.2 226.872 346.09 226.917 347.934 227.273C349.655 227.611 351.413 227.715 353.161 227.584C354.806 227.39 356.325 226.595 357.433 225.346C359.627 222.954 360.878 219.723 363.58 218.072C364.784 217.328 366.126 216.843 367.522 216.647C368.919 216.452 370.34 216.55 371.698 216.936C373.947 217.585 375.859 219.095 377.031 221.147C377.916 222.672 378.396 224.403 378.423 226.172C378.455 227.279 378.283 228.383 377.916 229.426C377.793 229.794 377.631 230.147 377.432 230.479C377.432 230.479 377.574 230.108 377.798 229.39C378.106 228.351 378.238 227.267 378.187 226.184C378.12 224.467 377.625 222.796 376.748 221.327C375.594 219.379 373.742 217.96 371.58 217.367C370.279 217.019 368.923 216.945 367.593 217.151C366.264 217.357 364.99 217.837 363.851 218.563C362.615 219.424 361.56 220.527 360.748 221.805C359.869 223.197 358.899 224.528 357.846 225.789C357.253 226.444 356.56 226.998 355.793 227.428C354.991 227.843 354.125 228.114 353.232 228.23C351.433 228.369 349.625 228.269 347.852 227.931C346.074 227.583 344.252 227.535 342.459 227.787C340.655 228.157 339.056 229.209 337.988 230.73C336.913 232.272 336.132 234.005 335.687 235.839C335.261 237.646 334.934 239.475 334.707 241.318C334.474 243.121 334.079 244.899 333.527 246.63C332.986 248.322 332.074 249.868 330.861 251.152C328.442 253.545 325.41 254.885 323.64 257.242C322.811 258.376 322.282 259.706 322.106 261.106C321.882 262.47 321.787 263.81 321.492 265.078C321.269 266.321 320.676 267.465 319.793 268.356C318.959 269.072 317.992 269.613 316.95 269.947C316.072 270.24 315.213 270.588 314.377 270.988C313.696 271.331 313.123 271.862 312.726 272.52C312.413 272.951 312.21 273.455 312.136 273.985C312.062 274.515 312.119 275.056 312.301 275.558C312.495 275.854 312.744 276.11 313.032 276.312Z" fill="#455A64"/>
<path d="M273.611 388.508L302.106 385.864C302.106 385.864 319.64 339.026 341.256 327.672L355.262 352.473L325.28 409.577H266.756L273.611 388.508Z" fill="#92E3A9"/>
<path opacity="0.3" d="M273.611 388.508L302.106 385.864C302.106 385.864 319.64 339.026 341.256 327.672L355.262 352.473L325.28 409.577H266.756L273.611 388.508Z" fill="black"/>
<path d="M284.868 401.669C286.275 398.445 288.066 395.407 290.201 392.624C288.774 395.838 286.984 398.873 284.868 401.669Z" fill="#FAFAFA"/>
<path d="M305.056 401.106C302.583 398.651 300.405 395.909 298.567 392.935C299.884 394.077 301.054 395.383 302.047 396.823C303.21 398.128 304.22 399.565 305.056 401.106Z" fill="#FAFAFA"/>
<path d="M308.56 390.375C308.151 387.864 308.151 385.301 308.56 382.79C308.97 385.301 308.97 387.864 308.56 390.375Z" fill="#FAFAFA"/>
<path d="M298.531 407.112C297.536 406.831 296.609 406.347 295.805 405.689C294.39 404.743 293.328 403.87 293.446 403.727C294.437 404.022 295.363 404.509 296.171 405.162C297.516 406.095 298.626 406.969 298.531 407.112Z" fill="#FAFAFA"/>
<path d="M314.897 364.066C314.429 365.873 313.768 367.622 312.926 369.283C312.268 371.027 311.421 372.692 310.401 374.248C310.855 372.438 311.512 370.688 312.36 369.031C313.024 367.288 313.875 365.623 314.897 364.066Z" fill="#FAFAFA"/>
<path d="M326.448 345.092C326.542 345.224 325.528 346.181 324.171 347.234C323.399 347.949 322.497 348.506 321.516 348.873C321.422 348.729 322.436 347.772 323.793 346.731C324.561 346.011 325.464 345.454 326.448 345.092Z" fill="#FAFAFA"/>
<path d="M369.067 405.82L383.768 345.63C384.998 340.58 388.078 336.195 392.383 333.366C396.688 330.536 401.894 329.476 406.942 330.4C412.128 331.352 416.743 334.319 419.802 338.67C422.861 343.022 424.123 348.413 423.319 353.694L414.328 412.52C413.255 418.54 410.357 424.072 406.039 428.346C401.721 432.619 396.196 435.422 390.234 436.364L378.553 438.206L369.067 405.82Z" fill="#92E3A9"/>
<path d="M415.39 326.512C413.856 325.24 412.063 324.328 410.14 323.844C408.059 323.354 405.896 323.354 403.815 323.844C401.282 324.493 398.929 325.721 396.936 327.433C392.63 331.094 390.293 335.808 388.677 339.182C387.886 340.869 387.285 342.257 386.86 343.214C386.664 343.725 386.423 344.218 386.14 344.685C386.256 344.152 386.422 343.631 386.636 343.13C387.001 342.137 387.532 340.737 388.276 338.99C389.147 336.964 390.157 335.001 391.296 333.116C392.712 330.799 394.476 328.721 396.523 326.955C398.581 325.162 401.027 323.887 403.662 323.234C405.824 322.735 408.073 322.764 410.222 323.318C411.666 323.694 413.021 324.357 414.21 325.268C414.527 325.518 414.823 325.794 415.095 326.093C415.308 326.393 415.402 326.5 415.39 326.512Z" fill="#263238"/>
<path d="M332.123 340.055C332.007 340.257 331.868 340.446 331.71 340.617L330.46 342.149C329.362 343.477 327.817 345.415 326.047 347.915C321.343 354.385 317.932 361.725 316.006 369.522C313.964 378.698 313.858 387.288 313.516 393.45C313.363 396.536 313.221 399.037 313.091 400.759C313.021 401.573 312.961 402.231 312.914 402.745C312.9 402.979 312.868 403.211 312.82 403.439C312.787 403.209 312.787 402.976 312.82 402.745C312.82 402.219 312.82 401.549 312.879 400.748C312.879 398.941 313.009 396.464 313.103 393.438C313.339 387.288 313.363 378.662 315.463 369.39C317.391 361.517 320.889 354.127 325.74 347.676C327.569 345.188 329.174 343.273 330.318 341.993C330.884 341.347 331.356 340.869 331.663 340.546C331.802 340.369 331.956 340.204 332.123 340.055Z" fill="#263238"/>
<path d="M426.304 339.924C424.688 329.156 418.836 326.584 412.759 323.234C410.777 322.133 401.208 319.645 393.621 317.767C392.889 313.113 391.591 304.762 391.261 303.003C390.86 300.527 352.607 306.712 352.123 307.645C351.804 308.255 350.943 317.922 350.365 324.395L341.209 327.637L329.303 343.046L323.085 351.995C319.421 357.157 316.803 363.005 315.38 369.199C314.044 376.059 313.47 383.05 313.669 390.04L311.817 429.52L391.91 452.467L398.045 412.436L418.694 383.938C420.452 372.417 428.287 353.156 426.304 339.924Z" fill="#92E3A9"/>
<path d="M357.999 325.603C357.719 324.713 357.541 323.794 357.468 322.863C357.22 321.164 356.913 318.807 356.618 316.199C356.477 314.907 356.347 313.675 356.217 312.514C356.096 311.506 356.025 310.491 356.005 309.476C355.994 308.758 356.195 308.054 356.583 307.454C356.89 307.047 357.149 306.939 357.173 306.963C357.197 306.987 356.996 307.178 356.784 307.585C356.516 308.177 356.399 308.826 356.442 309.476C356.442 310.313 356.654 311.318 356.784 312.454C356.913 313.591 357.067 314.847 357.232 316.127C357.527 318.735 357.763 321.104 357.905 322.815C358.041 323.738 358.073 324.673 357.999 325.603Z" fill="#263238"/>
<path d="M368.205 323.162C367.807 322.369 367.521 321.524 367.356 320.65C366.288 316.507 365.89 312.216 366.176 307.944C366.184 307.058 366.311 306.176 366.553 305.324C366.742 305.324 366.4 309.356 366.86 314.285C367.32 319.214 368.394 323.114 368.205 323.162Z" fill="#263238"/>
<path d="M387.19 320.315C387.432 317.341 387.357 314.348 386.966 311.39C386.364 308.466 385.437 305.621 384.205 302.908C384.798 303.574 385.273 304.339 385.609 305.169C387.49 309.059 388.235 313.414 387.757 317.719C387.701 318.609 387.51 319.485 387.19 320.315Z" fill="#263238"/>
<path d="M332.914 355.561C334.737 352.037 337.107 348.833 339.934 346.073C337.748 349.35 335.405 352.516 332.914 355.561Z" fill="#FAFAFA"/>
<path d="M350.884 340.653C348.595 338.321 346.612 335.699 344.984 332.853C346.185 333.956 347.251 335.201 348.158 336.562C349.233 337.804 350.148 339.179 350.884 340.653Z" fill="#FAFAFA"/>
<path d="M369.716 331.345C368.564 332.732 367.305 334.024 365.952 335.21C364.744 336.547 363.438 337.791 362.046 338.93C362.996 337.375 364.169 335.971 365.527 334.767C366.743 333.417 368.156 332.263 369.716 331.345Z" fill="#FAFAFA"/>
<path d="M364.43 319.956C363.331 319.371 362.338 318.603 361.492 317.683C360.505 316.91 359.649 315.981 358.955 314.931C360.051 315.529 361.047 316.301 361.905 317.216C362.888 317.984 363.741 318.909 364.43 319.956Z" fill="#FAFAFA"/>
<path d="M380.937 311.031C379.677 311.628 378.337 312.031 376.96 312.227C375.63 312.617 374.251 312.81 372.866 312.801C374.123 312.209 375.459 311.806 376.831 311.605C378.165 311.215 379.548 311.021 380.937 311.031Z" fill="#FAFAFA"/>
<path d="M384.24 337.531C383.862 336.173 383.687 334.766 383.721 333.356C383.552 331.959 383.584 330.544 383.816 329.156C384.194 330.514 384.369 331.921 384.335 333.332C384.504 334.729 384.472 336.143 384.24 337.531Z" fill="#FAFAFA"/>
<path d="M378.223 350.225C377.348 348.717 376.652 347.111 376.146 345.439C375.461 343.815 374.963 342.117 374.659 340.378C376.211 343.527 377.399 346.847 378.199 350.273L378.223 350.225Z" fill="#FAFAFA"/>
<path d="M361.869 359.257C360.929 357.661 360.17 355.964 359.604 354.196C358.839 352.501 358.269 350.723 357.905 348.896C358.837 350.5 359.597 352.2 360.17 353.969C360.926 355.663 361.496 357.436 361.869 359.257Z" fill="#FAFAFA"/>
<path d="M346.483 369.438C345.393 366.154 344.704 362.747 344.43 359.293C345.065 360.905 345.509 362.588 345.751 364.306C346.193 365.982 346.439 367.704 346.483 369.438Z" fill="#FAFAFA"/>
<path d="M328.194 369.845C326.376 366.987 324.902 363.918 323.805 360.705C325.623 363.562 327.097 366.631 328.194 369.845Z" fill="#FAFAFA"/>
<path d="M327.805 381.737C326.307 382.817 324.701 383.736 323.014 384.477C321.409 385.397 319.708 386.131 317.941 386.666C319.437 385.572 321.047 384.649 322.743 383.914C324.345 383 326.043 382.269 327.805 381.737Z" fill="#FAFAFA"/>
<path d="M328.029 400.544C327.228 399.198 326.665 397.72 326.365 396.177C325.869 394.695 325.633 393.136 325.669 391.571C326.236 393.01 326.666 394.5 326.955 396.022C327.452 397.492 327.811 399.006 328.029 400.544Z" fill="#FAFAFA"/>
<path d="M324.242 413.752C322.843 412.854 321.552 411.794 320.395 410.594C319.105 409.55 317.951 408.344 316.961 407.004C318.36 407.902 319.651 408.962 320.808 410.163C322.098 411.206 323.252 412.413 324.242 413.752Z" fill="#FAFAFA"/>
<path d="M348.336 404.731C348.336 404.911 345.669 405.701 342.507 407.124C339.345 408.548 336.937 410.007 336.831 409.852C338.442 408.446 340.278 407.33 342.259 406.55C344.165 405.592 346.221 404.977 348.336 404.731Z" fill="#FAFAFA"/>
<path d="M341.291 398.187C340.531 396.906 339.948 395.525 339.557 394.084C338.967 392.715 338.57 391.269 338.377 389.789C339.134 391.065 339.714 392.442 340.1 393.88C340.697 395.251 341.098 396.701 341.291 398.187Z" fill="#FAFAFA"/>
<path d="M355.58 382.012C354.69 384.038 353.611 385.973 352.359 387.791C351.279 389.739 350.023 391.582 348.607 393.294C350.585 389.343 352.919 385.586 355.58 382.072V382.012Z" fill="#FAFAFA"/>
<path d="M370.943 383.556C369.389 381.941 368.066 380.112 367.014 378.124C365.785 376.245 364.816 374.204 364.135 372.059C364.3 371.987 365.668 374.643 367.545 377.813C369.421 380.984 371.084 383.46 370.943 383.556Z" fill="#FAFAFA"/>
<path d="M380.111 368.17C378.68 368.739 377.152 369.015 375.615 368.984C374.092 369.165 372.549 369.043 371.073 368.625C372.57 368.423 374.081 368.335 375.592 368.362C377.092 368.188 378.602 368.124 380.111 368.17Z" fill="#FAFAFA"/>
<path d="M401.975 350.691C398.23 352.974 394.279 354.889 390.175 356.41C393.926 354.139 397.876 352.225 401.975 350.691Z" fill="#FAFAFA"/>
<path d="M403.426 339.565C404.629 336.2 406.213 332.988 408.146 329.994C407.647 331.71 406.95 333.36 406.069 334.911C405.365 336.559 404.479 338.12 403.426 339.565Z" fill="#FAFAFA"/>
<path d="M417.302 348.298C416.576 346.529 415.976 344.71 415.508 342.854C414.851 341.061 414.322 339.222 413.927 337.351C415.691 340.765 416.834 344.473 417.302 348.298Z" fill="#FAFAFA"/>
<path d="M419.485 359.879C417.863 360.777 416.116 361.423 414.305 361.793C412.542 362.362 410.703 362.648 408.853 362.643C410.585 362.037 412.355 361.554 414.151 361.195C415.898 360.634 417.679 360.194 419.485 359.879Z" fill="#FAFAFA"/>
<path d="M395.697 374.02C395.52 374.02 396.028 371.077 396.169 367.452C396.311 363.827 396.075 360.884 396.252 360.86C396.797 363.019 396.976 365.256 396.783 367.476C396.794 369.704 396.427 371.918 395.697 374.02Z" fill="#FAFAFA"/>
<path d="M390.954 388.58C387.781 386.03 385.168 382.835 383.285 379.201C383.438 379.105 384.996 381.318 387.119 383.903C388.478 385.392 389.758 386.953 390.954 388.58Z" fill="#FAFAFA"/>
<path d="M414.8 385.506C413.256 386.491 411.605 387.294 409.88 387.898C408.233 388.702 406.504 389.32 404.724 389.741C407.917 387.946 411.297 386.513 414.8 385.47V385.506Z" fill="#FAFAFA"/>
<path d="M406.258 412.903C405.9 408.521 405.943 404.116 406.387 399.743C406.761 404.123 406.718 408.531 406.258 412.903Z" fill="#FAFAFA"/>
<path d="M387.957 411.324C388.255 406.746 389.362 402.26 391.225 398.08C391.391 398.139 390.494 401.047 389.597 404.696C388.7 408.345 388.134 411.359 387.957 411.324Z" fill="#FAFAFA"/>
<path d="M388.795 418.514C388.795 418.693 385.869 418.98 382.282 419.59C378.695 420.2 375.816 420.87 375.769 420.691C377.816 419.82 379.972 419.24 382.176 418.968C384.35 418.5 386.578 418.347 388.795 418.514Z" fill="#FAFAFA"/>
<path d="M368.547 413.908C369.573 412.403 370.76 411.019 372.087 409.78C373.256 408.402 374.579 407.165 376.028 406.095C375.002 407.6 373.815 408.984 372.488 410.223C371.316 411.598 369.994 412.834 368.547 413.908Z" fill="#FAFAFA"/>
<path d="M355.439 426.793C354.814 425.268 354.282 423.706 353.846 422.115C353.206 420.594 352.654 419.036 352.194 417.449C354.065 420.221 355.184 423.444 355.439 426.793Z" fill="#FAFAFA"/>
<path d="M376.571 434.234C372.547 432.882 368.662 431.135 364.972 429.018C367.007 429.6 368.983 430.377 370.872 431.339C372.856 432.124 374.763 433.093 376.571 434.234Z" fill="#FAFAFA"/>
<path d="M339.71 432.069C339.876 430.564 340.249 429.09 340.819 427.69C341.192 426.227 341.76 424.822 342.507 423.515C342.34 425.019 341.967 426.493 341.398 427.893C341.016 429.353 340.448 430.757 339.71 432.069Z" fill="#FAFAFA"/>
<path d="M364.017 436.244C364.017 436.424 360.63 435.873 356.453 435.658C352.276 435.443 348.89 435.658 348.878 435.419C351.384 434.925 353.947 434.796 356.489 435.036C359.042 435.069 361.578 435.476 364.017 436.244Z" fill="#FAFAFA"/>
<path d="M369.067 400.963C369.044 400.804 369.044 400.643 369.067 400.484C369.064 400.026 369.132 399.57 369.267 399.132C369.451 398.394 369.907 397.756 370.542 397.35C371.411 396.839 372.435 396.669 373.42 396.871L373.185 397.015C374.471 392.421 376.535 385.721 378.6 378.208C380.535 371.173 381.845 364.7 382.754 359.999C383.202 357.737 383.556 355.859 383.839 354.435C383.946 353.751 384.1 353.076 384.299 352.414C384.285 353.109 384.21 353.801 384.075 354.483C383.886 355.811 383.58 357.726 383.178 360.082C382.156 366.245 380.825 372.35 379.19 378.375C377.125 385.9 374.99 392.576 373.574 397.134L373.515 397.314H373.338C372.447 397.108 371.512 397.235 370.707 397.673C370.121 398.027 369.681 398.583 369.468 399.24C369.078 400.293 369.149 400.975 369.067 400.963Z" fill="#263238"/>
<path d="M395.52 417.604C395.426 417.604 394.694 416.025 393.161 413.608C389.228 407.299 383.682 402.189 377.114 398.821C374.6 397.541 372.937 396.955 372.972 396.847C373.376 396.912 373.771 397.02 374.152 397.17C375.22 397.521 376.264 397.941 377.279 398.426C384.063 401.624 389.726 406.84 393.515 413.381C394.084 414.361 394.593 415.376 395.037 416.42C395.26 416.786 395.423 417.186 395.52 417.604Z" fill="#263238"/>
<g opacity="0.2">
<path d="M373.68 395.974C377.917 396.081 382.112 396.852 386.116 398.259C390.352 399.862 394.27 402.949 395.827 407.256C396.08 407.741 396.193 408.29 396.153 408.837C396.114 409.385 395.923 409.911 395.603 410.354C395.301 410.618 394.933 410.792 394.539 410.857C394.146 410.922 393.742 410.877 393.373 410.725C392.634 410.412 391.968 409.948 391.414 409.361C388.818 406.968 386.116 404.767 383.438 402.422C380.76 400.077 376.842 397.637 373.35 397.074" fill="black"/>
</g>
<path d="M365.173 388.341C364.812 388.63 364.415 388.872 363.993 389.058C362.831 389.635 361.618 390.1 360.371 390.446C356.219 391.647 351.827 391.7 347.648 390.6C343.47 389.5 339.658 387.287 336.607 384.189C335.686 383.266 334.849 382.261 334.106 381.186C333.811 380.822 333.565 380.42 333.374 379.99C333.469 379.918 334.554 381.665 336.914 383.914C339.978 386.849 343.725 388.952 347.805 390.027C351.885 391.102 356.167 391.114 360.253 390.063C363.332 389.226 365.114 388.221 365.173 388.341Z" fill="#263238"/>
<g opacity="0.2">
<path d="M333.952 380.875C335.946 385.254 338.271 389.669 342.046 392.612C344.134 394.44 346.742 395.547 349.492 395.77C353.433 395.842 356.819 393.114 359.828 390.53C350.082 392.086 339.109 387.599 333.952 380.875Z" fill="black"/>
</g>
<path d="M377.586 322.253C377.397 322.253 377.586 318.138 377.137 313.125C376.689 308.112 375.686 304.128 375.863 304.08C376.252 304.894 376.526 305.76 376.677 306.652C377.187 308.76 377.542 310.904 377.739 313.065C377.95 315.227 378.005 317.403 377.904 319.573C377.914 320.477 377.807 321.378 377.586 322.253Z" fill="#263238"/>
<path d="M237.624 482.353C237.624 482.353 224.798 485.164 213.353 483.417C202.616 481.79 178.581 483.477 178.592 497.774C178.592 513.769 210.651 509.821 223.146 507.285C235.642 504.749 248.101 502.5 248.101 502.5L237.624 482.353Z" fill="#92E3A9"/>
<path d="M208.834 502.847C208.128 501.052 207.61 499.187 207.288 497.283C206.775 495.42 206.458 493.507 206.344 491.577C207.033 493.373 207.535 495.238 207.843 497.14C208.372 499.001 208.704 500.914 208.834 502.847Z" fill="#263238"/>
<path d="M213.211 503.062C212.284 499.294 211.761 495.435 211.654 491.553C212.216 493.41 212.58 495.323 212.739 497.259C213.095 499.172 213.253 501.116 213.211 503.062Z" fill="#263238"/>
<path d="M217.435 501.387C216.941 499.766 216.64 498.091 216.539 496.398C216.232 494.73 216.133 493.03 216.244 491.337C217.036 494.627 217.432 498.001 217.424 501.387H217.435Z" fill="#263238"/>
<path d="M224.066 499.772C223.246 498.468 222.688 497.013 222.426 495.489C221.966 494.009 221.805 492.451 221.954 490.907C222.406 492.357 222.76 493.835 223.016 495.333C223.47 496.786 223.821 498.269 224.066 499.772Z" fill="#263238"/>
<path d="M225.541 493.862C226.09 493.733 226.656 493.693 227.217 493.742C228.753 493.796 230.271 494.099 231.712 494.64C232.211 494.819 232.68 495.073 233.105 495.393C233.354 495.578 233.561 495.817 233.71 496.092C233.859 496.367 233.946 496.671 233.966 496.984C233.94 497.329 233.84 497.664 233.673 497.966C233.507 498.268 233.278 498.53 233.002 498.734C232.726 498.937 232.41 499.078 232.075 499.146C231.74 499.213 231.395 499.207 231.063 499.126C229.708 498.75 228.526 497.903 227.724 496.733C226.392 494.991 225.63 492.871 225.543 490.668C225.456 488.466 226.05 486.291 227.24 484.446C227.482 484.15 227.814 483.943 228.184 483.86C228.378 483.835 228.574 483.853 228.759 483.913C228.945 483.973 229.115 484.073 229.258 484.207C229.713 484.68 229.996 485.296 230.06 485.954C230.206 487.036 230.15 488.135 229.895 489.196C229.542 490.735 228.793 492.151 227.724 493.3C227.442 493.613 227.13 493.898 226.792 494.149C226.68 494.246 226.552 494.322 226.415 494.376C226.415 494.376 226.863 493.97 227.594 493.18C228.55 492.011 229.21 490.623 229.518 489.136C229.731 488.125 229.759 487.083 229.6 486.061C229.54 485.532 229.312 485.037 228.951 484.65C228.86 484.572 228.752 484.516 228.637 484.484C228.521 484.453 228.401 484.447 228.283 484.468C228.165 484.488 228.053 484.534 227.955 484.603C227.856 484.671 227.773 484.761 227.712 484.865C226.635 486.612 226.109 488.651 226.204 490.71C226.298 492.768 227.01 494.748 228.243 496.386C228.948 497.457 230 498.244 231.217 498.612C231.469 498.678 231.732 498.69 231.989 498.646C232.245 498.602 232.49 498.503 232.706 498.356C232.923 498.209 233.106 498.017 233.244 497.793C233.382 497.569 233.471 497.318 233.506 497.056C233.487 496.82 233.418 496.592 233.304 496.385C233.19 496.179 233.033 496 232.845 495.86C232.471 495.557 232.053 495.315 231.606 495.142C230.212 494.581 228.746 494.227 227.252 494.089C226.084 493.886 225.541 493.91 225.541 493.862Z" fill="#263238"/>
<path d="M246.839 500.382L246.52 500.49L245.553 500.729L241.836 501.59C238.603 502.308 233.907 503.325 228.078 504.462C222.249 505.598 215.288 506.854 207.477 507.967C203.388 508.648 199.236 508.861 195.099 508.601C192.898 508.451 190.723 508.029 188.622 507.345C187.542 506.973 186.5 506.501 185.507 505.933C184.469 505.37 183.545 504.615 182.781 503.708C182.354 503.309 181.981 502.855 181.672 502.356C181.07 501.307 180.7 500.137 180.588 498.929C180.476 497.72 180.625 496.502 181.023 495.357C181.795 493.148 183.231 491.24 185.129 489.902C186.916 488.626 188.886 487.637 190.97 486.971C191.996 486.671 192.987 486.313 194.002 486.085C195.017 485.858 196.02 485.607 197.023 485.463C205.058 484.183 212.362 484.829 218.45 484.829C221.494 484.889 224.243 484.829 226.651 484.662C228.708 484.511 230.756 484.248 232.786 483.872L235.004 483.393L236.597 482.939L237.577 482.664C237.687 482.624 237.802 482.6 237.919 482.592C237.919 482.592 237.813 482.652 237.6 482.723L236.633 483.058L235.052 483.573L232.845 484.111C230.806 484.528 228.746 484.828 226.674 485.008C224.255 485.188 221.494 485.308 218.415 485.272C212.326 485.331 205.023 484.721 197.094 486.025C196.102 486.169 195.123 486.444 194.12 486.659C193.117 486.875 192.15 487.246 191.135 487.533C189.109 488.183 187.194 489.148 185.46 490.392C183.666 491.658 182.309 493.461 181.578 495.549C181.212 496.607 181.075 497.733 181.177 498.85C181.279 499.967 181.617 501.048 182.168 502.021C182.449 502.462 182.786 502.864 183.171 503.217C183.891 504.045 184.75 504.737 185.707 505.263C186.662 505.812 187.665 506.269 188.704 506.627C190.76 507.287 192.888 507.689 195.04 507.823C199.136 508.085 203.247 507.888 207.3 507.237C215.087 506.196 222.061 504.94 227.889 503.863C233.718 502.787 238.426 501.83 241.683 501.184L245.423 500.442L246.391 500.262C246.547 500.269 246.7 500.31 246.839 500.382Z" fill="#263238"/>
<path d="M199.949 508.147C199.756 507.048 199.65 505.936 199.63 504.821C199.489 502.775 199.253 499.94 198.84 496.841C198.427 493.742 197.931 490.943 197.53 488.921C197.255 487.842 197.069 486.741 196.976 485.631C197.414 486.657 197.743 487.728 197.955 488.825C198.599 491.439 199.099 494.087 199.453 496.757C199.801 499.424 200.005 502.108 200.067 504.797C200.141 505.915 200.102 507.037 199.949 508.147Z" fill="#263238"/>
<path opacity="0.4" d="M233.671 483.046L241.801 503.684L248.101 502.5L236.031 482.353L233.671 483.046Z" fill="black"/>
<path d="M339.58 426.482C338.271 426.913 254.296 403.057 220.338 393.378C215.929 392.119 211.306 391.827 206.777 392.522C202.248 393.217 197.917 394.883 194.073 397.41L193.66 397.673C188.085 401.328 183.759 406.64 181.273 412.882C178.788 419.124 178.264 425.992 179.772 432.547C180.741 436.769 182.527 440.753 185.026 444.269C187.526 447.785 190.689 450.763 194.333 453.029C216.751 466.943 264.125 496.207 265.576 495.633C267.476 494.891 326.66 493.336 326.66 493.336L255.452 441.401L289.328 463.605L339.58 426.518V426.482Z" fill="#263238"/>
<path d="M269.47 400.568L287.322 391.201L304.832 402.327L370.365 404.504L379.804 436.807L284.938 414.506C284.938 414.506 267.676 416.061 266.378 412.113C265.08 408.165 269.47 400.568 269.47 400.568Z" fill="#FFBE9D"/>
<path d="M323.168 452.419L314.342 481.826L315.439 490.787C323.211 498.727 333.571 503.521 344.579 504.272C355.587 505.023 366.487 501.679 375.238 494.867C380.662 490.644 385.052 485.207 388.064 478.982C391.077 472.757 392.631 465.91 392.606 458.975L392.476 428.276L323.168 452.419Z" fill="#263238"/>
<path d="M270.614 452.61C270.52 452.742 260.278 445.169 247.747 435.694C235.217 426.218 225.128 418.418 225.235 418.286C225.341 418.155 235.571 425.716 248.113 435.191C260.656 444.667 270.72 452.467 270.614 452.61Z" fill="#455A64"/>
<path d="M286.118 397.062C283.279 398.312 280.363 399.371 277.387 400.233C274.47 401.281 271.491 402.14 268.467 402.805C271.305 401.553 274.222 400.494 277.198 399.635C280.114 398.585 283.094 397.726 286.118 397.062Z" fill="#EB996E"/>
<path d="M287.452 402.578C286.456 402.865 285.437 403.062 284.408 403.164C282.531 403.475 279.947 403.942 277.116 404.6C274.284 405.258 271.759 405.988 269.93 406.538C268.958 406.894 267.96 407.17 266.945 407.364C267.844 406.855 268.798 406.454 269.788 406.167C272.142 405.32 274.541 404.609 276.974 404.038C279.406 403.473 281.868 403.049 284.348 402.77C285.373 402.595 286.414 402.531 287.452 402.578Z" fill="#EB996E"/>
<path d="M285.953 407.65C282.728 408.624 279.445 409.391 276.124 409.947C272.842 410.714 269.516 411.277 266.166 411.634C269.397 410.667 272.683 409.9 276.006 409.337C279.286 408.573 282.607 408.009 285.953 407.65Z" fill="#EB996E"/>
<path d="M262.803 357.163L279.263 412.101C279.356 412.407 279.537 412.678 279.783 412.878C280.029 413.078 280.329 413.2 280.644 413.226L325.48 416.636C325.878 416.663 326.25 416.843 326.522 417.138C326.794 417.434 326.944 417.823 326.944 418.227V421.062C326.944 421.274 326.902 421.484 326.821 421.679C326.74 421.875 326.621 422.052 326.472 422.2C326.322 422.348 326.145 422.465 325.95 422.543C325.756 422.621 325.548 422.658 325.339 422.653L202.627 420.261C202.313 420.255 202.008 420.154 201.752 419.97C201.495 419.787 201.299 419.53 201.188 419.232L179.619 361.937C179.529 361.702 179.495 361.448 179.521 361.196C179.547 360.945 179.631 360.704 179.767 360.492C179.903 360.281 180.087 360.105 180.303 359.98C180.52 359.854 180.762 359.783 181.011 359.772L261.14 355.979C261.51 355.947 261.88 356.048 262.184 356.264C262.488 356.481 262.707 356.799 262.803 357.163Z" fill="#455A64"/>
<path d="M228.232 380.827C227.63 381.055 227.094 381.429 226.67 381.918C226.246 382.406 225.947 382.993 225.801 383.627C225.747 384.289 225.865 384.954 226.145 385.554C226.424 386.155 226.855 386.67 227.394 387.049C228.041 387.523 228.812 387.793 229.611 387.823C230.409 387.852 231.198 387.641 231.878 387.216C232.559 386.703 233.048 385.969 233.263 385.136C233.477 384.302 233.405 383.42 233.057 382.634C232.515 381.115 229.777 380.05 228.196 380.827" fill="#E0E0E0"/>
<path d="M248.101 502.5L235.122 480.869L330.46 405.102C336.391 400.169 343.646 397.156 351.285 396.452C356.851 395.939 362.46 396.667 367.719 398.585C372.978 400.503 377.76 403.564 381.728 407.554C385.697 411.544 388.757 416.366 390.693 421.681C392.629 426.997 393.395 432.678 392.936 438.326L391.414 456.81L328.194 477.471L248.101 502.5Z" fill="#263238"/>
<path d="M370.365 451.151C370.365 451.151 370.294 451.235 370.117 451.39L369.338 452.036L366.306 454.501L364.099 456.259C363.297 456.905 362.341 457.456 361.362 458.21L358.2 460.411C357.633 460.794 357.02 461.212 356.465 461.607L354.565 462.804C351.981 464.371 349.185 466.165 346.011 467.793C344.442 468.63 342.837 469.539 341.15 470.389L335.876 472.913C328.007 476.568 319.961 479.818 311.77 482.652C294.354 488.741 278.26 493.12 266.732 496.661C263.842 497.523 261.234 498.336 258.945 499.054C256.656 499.772 254.697 500.382 253.045 500.932L249.364 502.129L248.396 502.428C248.286 502.468 248.171 502.496 248.054 502.512L248.373 502.368L249.317 502.009L252.974 500.681C254.556 500.095 256.514 499.485 258.803 498.695C261.092 497.905 263.676 497.092 266.555 496.207C278.06 492.546 294.142 488.107 311.522 482.029C320.23 479.027 328.336 475.677 335.592 472.363L340.855 469.862C342.554 469.025 344.159 468.128 345.728 467.302C348.902 465.699 351.698 463.928 354.294 462.397L356.194 461.26C356.795 460.877 357.374 460.471 357.94 460.064L361.232 457.898C362.211 457.217 363.167 456.63 363.981 455.996L366.211 454.273L369.314 451.881L370.14 451.282L370.365 451.151Z" fill="#455A64"/>
<path d="M372.677 461.26C372.385 461.478 372.063 461.651 371.721 461.775C371.084 462.062 370.152 462.457 368.984 462.887C365.937 464.026 362.814 464.946 359.639 465.639C356.461 466.327 353.24 466.79 349.999 467.027C348.76 467.111 347.745 467.146 347.049 467.146C346.686 467.174 346.322 467.153 345.964 467.087C347.287 466.845 348.622 466.678 349.964 466.584C352.418 466.309 355.863 465.83 359.509 465.029C363.155 464.227 366.483 463.246 368.842 462.481C370.098 462.004 371.378 461.596 372.677 461.26Z" fill="#455A64"/>
<path d="M326.66 408.74C326.767 408.883 306.366 425.142 281.092 445.05C255.818 464.957 235.24 481.013 235.146 480.869C235.052 480.726 255.441 464.479 280.714 444.559C305.988 424.639 326.566 408.608 326.66 408.74Z" fill="#455A64"/>
<path d="M321.115 489.136C316.548 486.672 311.416 488.131 307.038 489.627C304.124 490.62 301.139 492.199 298.142 491.349C296.006 490.739 294.413 488.957 292.773 487.461C289.464 484.376 285.58 481.993 281.349 480.454C277.117 478.915 272.625 478.251 268.136 478.5C265.573 478.625 263.152 479.733 261.364 481.599C256.868 486.54 260.255 492.953 264.278 497.152C271.447 504.54 280.913 509.189 291.074 510.312C299.44 511.197 310.944 510.025 319.392 506.34C324.619 504.067 327.298 497.81 324.56 492.761C323.788 491.236 322.59 489.975 321.115 489.136Z" fill="#92E3A9"/>
<g opacity="0.4">
<path d="M321.115 493.084C316.537 490.619 311.404 492.079 307.027 493.574C304.112 494.567 301.127 496.147 298.13 495.297C295.994 494.687 294.401 492.904 292.761 491.409C289.453 488.324 285.568 485.941 281.337 484.402C277.105 482.863 272.613 482.199 268.125 482.448C265.561 482.573 263.141 483.681 261.352 485.547C260.447 486.525 259.798 487.718 259.464 489.016C260.33 492.096 261.987 494.887 264.266 497.104C271.435 504.492 280.901 509.141 291.062 510.264C299.428 511.149 310.932 509.977 319.38 506.292C320.88 505.645 322.208 504.648 323.256 503.381C324.304 502.115 325.042 500.616 325.41 499.006C325.144 497.77 324.62 496.606 323.873 495.593C323.126 494.58 322.173 493.74 321.079 493.132L321.115 493.084Z" fill="black"/>
</g>
<path d="M325.48 498.958C325.282 497.977 324.902 497.043 324.36 496.207C323.704 495.258 322.875 494.445 321.917 493.814C320.656 492.949 319.214 492.392 317.705 492.187C314.318 491.78 310.378 493.228 306.012 494.424C303.853 495.01 301.493 495.896 298.932 495.62C297.638 495.451 296.393 495.011 295.275 494.328C294.162 493.625 293.111 492.824 292.136 491.936C288.576 488.505 284.302 485.929 279.629 484.398C277.609 483.703 275.526 483.214 273.411 482.939C271.572 482.67 269.704 482.67 267.865 482.939C266.362 483.169 264.913 483.68 263.594 484.446C262.605 485.027 261.71 485.757 260.939 486.612C259.759 488.107 259.322 489.124 259.252 489.076C259.618 488.129 260.127 487.245 260.762 486.456C261.497 485.516 262.383 484.707 263.381 484.063C264.728 483.228 266.223 482.667 267.782 482.412C269.66 482.129 271.568 482.129 273.446 482.412C275.599 482.674 277.722 483.151 279.782 483.836C282.057 484.602 284.253 485.588 286.343 486.779C287.456 487.403 288.525 488.107 289.54 488.885C290.567 489.698 291.522 490.584 292.514 491.445C293.462 492.33 294.485 493.131 295.57 493.838C296.614 494.468 297.774 494.875 298.979 495.034C301.339 495.357 303.699 494.52 305.858 493.945C310.212 492.749 314.212 491.349 317.764 491.816C319.136 492.016 320.451 492.509 321.623 493.262C322.794 494.014 323.795 495.01 324.56 496.183C324.962 496.825 325.25 497.533 325.41 498.276C325.457 498.501 325.481 498.729 325.48 498.958Z" fill="#263238"/>
<path d="M325.48 498.958C325.282 497.977 324.902 497.043 324.36 496.207C323.704 495.258 322.875 494.445 321.917 493.814C320.656 492.949 319.214 492.392 317.705 492.187C314.318 491.78 310.378 493.228 306.012 494.424C303.853 495.01 301.493 495.896 298.932 495.62C297.638 495.451 296.393 495.011 295.275 494.328C294.162 493.625 293.111 492.824 292.136 491.936C288.576 488.505 284.302 485.929 279.629 484.398C277.609 483.703 275.526 483.214 273.411 482.939C271.572 482.67 269.704 482.67 267.865 482.939C266.362 483.169 264.913 483.68 263.594 484.446C262.605 485.027 261.71 485.757 260.939 486.612C259.759 488.107 259.322 489.124 259.252 489.076C259.618 488.129 260.127 487.245 260.762 486.456C261.497 485.516 262.383 484.707 263.381 484.063C264.728 483.228 266.223 482.667 267.782 482.412C269.66 482.129 271.568 482.129 273.446 482.412C275.599 482.674 277.722 483.151 279.782 483.836C282.057 484.602 284.253 485.588 286.343 486.779C287.456 487.403 288.525 488.107 289.54 488.885C290.567 489.698 291.522 490.584 292.514 491.445C293.462 492.33 294.485 493.131 295.57 493.838C296.614 494.468 297.774 494.875 298.979 495.034C301.339 495.357 303.699 494.52 305.858 493.945C310.212 492.749 314.212 491.349 317.764 491.816C319.136 492.016 320.451 492.509 321.623 493.262C322.794 494.014 323.795 495.01 324.56 496.183C324.962 496.825 325.25 497.533 325.41 498.276C325.457 498.501 325.481 498.729 325.48 498.958Z" fill="#263238"/>
<path d="M268.762 497.834C269.482 497.195 270.274 496.645 271.122 496.195C273.08 494.994 275.101 493.9 277.175 492.917C279.248 491.926 281.371 491.043 283.534 490.273C284.414 489.908 285.333 489.647 286.272 489.495C285.449 489.974 284.584 490.375 283.688 490.691C282.071 491.373 279.853 492.331 277.434 493.479C275.015 494.628 272.88 495.752 271.334 496.578C270.52 497.083 269.658 497.503 268.762 497.834Z" fill="#263238"/>
<path d="M270.378 502.476C273.258 500.718 276.241 499.14 279.31 497.75C282.293 496.176 285.366 494.786 288.514 493.586C285.633 495.344 282.651 496.922 279.582 498.312C276.601 499.891 273.528 501.281 270.378 502.476Z" fill="#263238"/>
<path d="M289.257 504.485C289.163 504.629 284.29 501.686 278.378 497.905C272.467 494.125 267.759 490.93 267.759 490.787C267.759 490.643 272.715 493.586 278.638 497.379C284.561 501.171 289.375 504.342 289.257 504.485Z" fill="#263238"/>
<path d="M292.018 499.676C291.184 499.212 290.394 498.671 289.658 498.061C288.23 497.008 286.248 495.561 284.03 494.005C281.812 492.45 279.794 491.074 278.319 490.081C277.478 489.596 276.688 489.027 275.959 488.382C276.857 488.731 277.716 489.176 278.52 489.71C280.054 490.608 282.142 491.936 284.419 493.491C286.697 495.046 288.596 496.566 289.965 497.714C290.727 498.279 291.417 498.938 292.018 499.676Z" fill="#263238"/>
</svg>
