<svg width="662" height="421" viewBox="0 0 662 421" fill="none" xmlns="http://www.w3.org/2000/svg">
<path d="M378.206 58.1624C369.913 54.4692 360.877 52.7485 351.808 53.1352C342.738 53.5219 333.882 56.0056 325.933 60.3913C309.207 69.8011 297.83 87.1089 280.629 95.6174C261.112 105.308 238.067 101.916 216.292 102.304C194.516 102.692 169.407 109.805 161.393 130.049C154.609 147.153 162.885 167.194 157.1 184.657C152.255 199.125 139.007 208.729 128.745 220.009C111.728 238.731 102.231 264.887 106.272 289.86C110.313 314.833 129.006 337.607 153.553 343.751C180.232 350.418 209.644 337.994 235.373 347.695C252.69 354.236 264.968 369.616 280.619 379.491C306.959 396.101 343.309 395.073 368.67 377C381.636 367.765 391.657 354.711 405.146 346.261C440.033 324.34 488.671 338.082 524.12 317.033C552.33 300.317 564.831 261.553 551.797 231.454C542.242 209.436 521.581 193.504 513.034 171.09C505.814 152.27 508.014 131.357 505.785 111.307C503.556 91.2566 494.263 69.2487 475.027 63.2501C462.332 59.2962 448.755 63.3955 435.575 65.1204C414.905 67.8242 397.093 67.0586 378.244 58.1624" fill="#E0E0E0"/>
<path d="M75.0382 3.59341C58.6898 8.95244 41.256 22.006 37.496 38.8292C33.7359 55.6525 38.2325 73.7646 48.1559 87.8066C55.7535 98.5343 67.9445 107.498 80.9981 106.006C90.6889 104.882 98.9067 98.2533 108.297 95.5108C116.951 92.9718 126.312 93.8052 134.966 91.2759C153.098 85.9847 164.455 65.5371 161.975 46.8048C159.494 28.0724 145.083 12.1795 127.582 5.07611C110.08 -2.02726 90.059 -1.15509 72.034 4.47528" fill="#E0E0E0"/>
<path d="M573.001 336.299C559.502 333.624 544.83 339.332 536.253 350.098C527.677 360.865 525.322 376.099 529.712 389.143C534.102 402.186 544.926 412.759 557.873 417.401C567.341 420.793 578.447 420.977 586.946 415.637C594.272 411.053 598.827 403.039 601.308 394.715C605.116 382.03 604.544 367.736 598.149 356.136C591.753 344.536 581.548 335.368 568.301 335.64" fill="#EBEBEB"/>
<path d="M613.315 234.041L613.78 234.884C614.3 235.831 615.084 236.605 616.038 237.113L616.881 237.578L616.038 238.034C615.082 238.542 614.297 239.321 613.78 240.272L613.315 241.106L612.849 240.272C612.327 239.325 611.543 238.548 610.592 238.034L609.748 237.578L610.592 237.113C611.541 236.6 612.324 235.827 612.849 234.884L613.315 234.041Z" fill="#EBEBEB"/>
<path d="M75.2417 275.179L75.6971 276.012C76.2195 276.959 77.0033 277.736 77.9551 278.251L78.8079 278.706L77.9551 279.171C77.006 279.685 76.2227 280.458 75.6971 281.4L75.2417 282.243L74.7765 281.4C74.2509 280.458 73.4677 279.685 72.5185 279.171L71.6657 278.706L72.5185 278.251C73.4703 277.736 74.2541 276.959 74.7765 276.012L75.2417 275.179Z" fill="#EBEBEB"/>
<path d="M631.795 328.866L632.58 330.319C633.472 331.958 634.818 333.304 636.456 334.196L637.91 334.99L636.456 335.775C634.818 336.667 633.472 338.013 632.58 339.652L631.795 341.105L631 339.652C630.108 338.013 628.762 336.667 627.124 335.775L625.67 334.99L627.124 334.196C628.762 333.304 630.108 331.958 631 330.319L631.795 328.866Z" fill="#EBEBEB"/>
<path d="M55.2398 368.288L56.0345 369.742C56.9266 371.38 58.2725 372.726 59.9108 373.618L61.3644 374.413L59.9108 375.207C58.2725 376.099 56.9266 377.445 56.0345 379.084L55.2398 380.527L54.4549 379.084C53.5628 377.445 52.2168 376.099 50.5785 375.207L49.1249 374.413L50.5785 373.618C52.2168 372.726 53.5628 371.38 54.4549 369.742L55.2398 368.288Z" fill="#EBEBEB"/>
<path d="M277.004 37.4241L277.799 38.8777C278.691 40.5159 280.037 41.8619 281.675 42.754L283.129 43.5487L281.675 44.3433C280.037 45.2354 278.691 46.5814 277.799 48.2196L277.004 49.6636L276.21 48.2196C275.318 46.5814 273.972 45.2354 272.333 44.3433L270.909 43.5099L272.353 42.7152C273.991 41.8231 275.337 40.4772 276.229 38.8389L277.004 37.4241Z" fill="#EBEBEB"/>
<path d="M484.562 167.359L485.347 168.812C486.24 170.45 487.585 171.796 489.224 172.689L490.677 173.483L489.224 174.268C487.585 175.16 486.24 176.506 485.347 178.144L484.562 179.598L483.768 178.144C482.876 176.506 481.53 175.16 479.891 174.268L478.438 173.483L479.891 172.689C481.53 171.796 482.876 170.45 483.768 168.812L484.562 167.359Z" fill="#FAFAFA"/>
<path d="M194.982 246.484C194.08 250.108 240.587 288.552 350.79 280.644C445.489 273.861 491.869 230.494 491.869 230.494L194.982 246.484Z" fill="#C53F3F"/>
<path opacity="0.2" d="M194.982 246.484C194.08 250.108 240.587 288.552 350.79 280.644C445.489 273.861 491.869 230.494 491.869 230.494L194.982 246.484Z" fill="black"/>
<path d="M343.536 257.164C425.784 253.242 492.037 241.187 491.515 230.239C490.992 219.29 423.894 213.594 341.645 217.516C259.397 221.438 193.144 233.493 193.666 244.441C194.189 255.39 261.287 261.086 343.536 257.164Z" fill="#C53F3F"/>
<path d="M274.398 232.268C274.398 232.268 270.056 164.907 336.845 156.369C403.635 147.832 409.585 218.604 409.585 218.604C409.585 218.604 366.354 251.552 274.398 232.268Z" fill="#F5F5F5"/>
<path d="M308.849 172.398C309.072 172.718 306.755 174.51 303.373 177.728C302.54 178.532 301.619 179.414 300.689 180.422C299.759 181.43 298.751 182.505 297.782 183.658C293.466 188.731 289.879 194.38 287.122 200.443C286.511 201.858 285.901 203.185 285.445 204.465C284.99 205.744 284.476 206.946 284.147 208.05C282.674 212.469 282.044 215.328 281.656 215.27C281.269 215.212 281.366 212.256 282.432 207.517C282.703 206.345 283.023 205.066 283.468 203.728C283.914 202.391 284.438 200.966 284.99 199.474C287.596 193.046 291.334 187.138 296.028 182.03C297.132 180.887 298.16 179.782 299.226 178.842C300.177 177.943 301.173 177.092 302.21 176.293C305.99 173.367 308.694 172.117 308.849 172.398Z" fill="white"/>
<path d="M480.279 229.176C480.164 229.36 480.027 229.529 479.872 229.68C479.444 230.129 478.98 230.544 478.486 230.921C476.627 232.247 474.592 233.307 472.439 234.07C458.436 239.5 443.722 242.882 428.753 244.11C425.846 244.333 423.559 244.439 421.97 244.478H420.119C419.902 244.493 419.685 244.493 419.469 244.478C419.682 244.426 419.9 244.4 420.119 244.401L421.96 244.275C423.569 244.168 425.885 244.013 428.743 243.742C443.658 242.325 458.32 238.95 472.352 233.702C474.494 232.976 476.533 231.976 478.419 230.727C479.065 230.242 479.686 229.725 480.279 229.176Z" fill="white"/>
<path d="M324.955 281.904C324.63 281.753 324.324 281.564 324.044 281.342C323.237 280.791 322.47 280.186 321.747 279.53C320.659 278.567 319.648 277.52 318.724 276.4C317.591 275.028 316.576 273.562 315.69 272.019C314.82 270.467 314.077 268.847 313.471 267.174C312.987 265.805 312.605 264.403 312.328 262.978C312.136 262.018 312.007 261.047 311.94 260.071C311.9 259.713 311.9 259.352 311.94 258.995C312.037 258.995 312.144 260.507 312.686 262.871C313.007 264.266 313.419 265.638 313.917 266.98C314.544 268.616 315.286 270.206 316.136 271.738C317.015 273.252 318.002 274.7 319.092 276.07C319.99 277.186 320.961 278.242 321.999 279.229C323.763 280.935 325.013 281.817 324.955 281.904Z" fill="#263238"/>
<path d="M320.381 266.515C320.381 266.583 320.138 266.699 320.061 267.058C320.031 267.15 320.024 267.248 320.039 267.344C320.054 267.44 320.091 267.531 320.148 267.61C320.221 267.681 320.311 267.732 320.41 267.757C320.509 267.782 320.613 267.781 320.711 267.754C320.809 267.726 320.898 267.673 320.97 267.601C321.041 267.528 321.092 267.437 321.117 267.339C321.125 267.242 321.11 267.144 321.075 267.054C321.04 266.963 320.985 266.882 320.914 266.815C320.652 266.544 320.371 266.593 320.352 266.515C320.332 266.437 320.662 266.234 321.137 266.515C321.274 266.603 321.388 266.725 321.466 266.869C321.544 267.013 321.584 267.175 321.582 267.339C321.573 267.55 321.495 267.752 321.361 267.915C321.226 268.077 321.042 268.192 320.836 268.24C320.659 268.289 320.472 268.286 320.296 268.233C320.121 268.18 319.964 268.077 319.844 267.938C319.724 267.799 319.646 267.629 319.62 267.447C319.593 267.266 319.618 267.08 319.693 266.912C319.974 266.399 320.4 266.447 320.381 266.515Z" fill="#263238"/>
<path d="M324.722 274.277C324.722 274.345 324.49 274.452 324.402 274.82C324.376 274.913 324.369 275.01 324.384 275.106C324.4 275.201 324.435 275.292 324.49 275.372C324.559 275.455 324.652 275.514 324.756 275.542C324.86 275.57 324.97 275.565 325.071 275.527C325.177 275.507 325.274 275.454 325.349 275.375C325.423 275.297 325.472 275.198 325.488 275.091C325.494 274.996 325.479 274.901 325.443 274.812C325.408 274.723 325.354 274.643 325.284 274.578C325.023 274.306 324.742 274.345 324.722 274.277C324.703 274.209 325.032 273.996 325.507 274.277C325.645 274.366 325.758 274.488 325.836 274.632C325.914 274.776 325.954 274.937 325.953 275.101C325.928 275.228 325.878 275.35 325.806 275.457C325.734 275.565 325.64 275.657 325.532 275.728C325.423 275.799 325.301 275.848 325.174 275.871C325.046 275.894 324.915 275.891 324.788 275.863C324.661 275.834 324.542 275.78 324.436 275.705C324.331 275.629 324.242 275.533 324.174 275.422C324.107 275.311 324.062 275.188 324.043 275.06C324.024 274.931 324.031 274.8 324.063 274.675C324.315 274.151 324.742 274.209 324.722 274.277Z" fill="#263238"/>
<path d="M194.012 243.79C194.265 243.678 194.528 243.59 194.797 243.528L197.084 242.879C199.023 242.327 201.93 241.581 205.545 240.718C212.706 238.993 222.697 236.939 233.842 235.34C244.986 233.741 255.162 232.956 262.527 232.607C266.209 232.432 269.194 232.345 271.248 232.335H273.623C273.9 232.31 274.179 232.31 274.456 232.335C274.184 232.382 273.908 232.408 273.632 232.413L271.258 232.52C269.203 232.597 266.219 232.733 262.536 232.956C255.181 233.392 245.035 234.254 233.9 235.863C222.765 237.472 212.793 239.449 205.612 241.086C202.017 241.9 199.12 242.588 197.123 243.092L194.817 243.654C194.553 243.721 194.284 243.766 194.012 243.79Z" fill="#263238"/>
<path d="M410.622 251.378C410.187 251.163 409.772 250.91 409.381 250.622L406.077 248.432C403.286 246.581 399.4 244.081 395.019 241.455C390.639 238.828 386.598 236.609 383.652 235L380.163 233.12C379.724 232.909 379.303 232.663 378.904 232.384C379.368 232.533 379.818 232.721 380.251 232.946C381.103 233.334 382.324 233.915 383.817 234.681C386.811 236.192 390.891 238.392 395.281 241.018C399.671 243.645 403.538 246.213 406.28 248.131C407.647 249.101 408.751 249.895 409.497 250.457C409.898 250.731 410.275 251.039 410.622 251.378Z" fill="#263238"/>
<path d="M383.468 238.664C383.526 238.722 383.235 238.964 383.255 239.468C383.26 239.738 383.371 239.996 383.565 240.185C383.692 240.27 383.839 240.321 383.991 240.334C384.144 240.347 384.297 240.322 384.437 240.26C384.577 240.198 384.7 240.102 384.793 239.981C384.886 239.859 384.947 239.716 384.97 239.565C384.97 239.43 384.941 239.296 384.886 239.172C384.831 239.049 384.751 238.938 384.65 238.848C384.292 238.499 383.923 238.547 383.914 238.47C383.904 238.392 384.311 238.189 384.883 238.567C385.042 238.677 385.175 238.821 385.272 238.988C385.369 239.156 385.428 239.343 385.445 239.536C385.444 239.788 385.368 240.034 385.226 240.243C385.085 240.452 384.884 240.614 384.65 240.708C384.425 240.817 384.173 240.855 383.926 240.819C383.679 240.783 383.449 240.673 383.264 240.505C383.126 240.365 383.022 240.195 382.959 240.009C382.897 239.822 382.879 239.624 382.906 239.429C382.993 238.77 383.458 238.605 383.468 238.664Z" fill="#263238"/>
<path d="M258.069 234.913C258.069 234.971 257.836 235.214 257.856 235.708C257.855 235.842 257.882 235.976 257.935 236.099C257.989 236.223 258.067 236.334 258.166 236.425C258.292 236.513 258.44 236.566 258.593 236.581C258.746 236.595 258.901 236.57 259.042 236.508C259.183 236.446 259.305 236.348 259.398 236.225C259.491 236.102 259.55 235.957 259.571 235.805C259.569 235.671 259.54 235.539 259.485 235.418C259.43 235.296 259.35 235.187 259.251 235.097C258.893 234.739 258.524 234.797 258.515 234.719C258.505 234.642 258.912 234.438 259.484 234.816C259.644 234.926 259.777 235.069 259.875 235.237C259.972 235.405 260.03 235.592 260.046 235.785C260.045 236.037 259.969 236.282 259.828 236.489C259.686 236.697 259.485 236.857 259.251 236.948C259.025 237.057 258.771 237.096 258.522 237.06C258.274 237.024 258.041 236.914 257.856 236.745C257.72 236.603 257.618 236.433 257.558 236.247C257.497 236.061 257.48 235.863 257.507 235.669C257.594 235.02 258.059 234.845 258.069 234.913Z" fill="#263238"/>
<path d="M234.937 237.83C234.937 237.888 234.704 238.121 234.714 238.625C234.717 238.76 234.747 238.892 234.802 239.015C234.857 239.139 234.936 239.25 235.034 239.342C235.157 239.436 235.303 239.494 235.457 239.509C235.611 239.525 235.767 239.497 235.906 239.429C236.051 239.373 236.177 239.276 236.27 239.151C236.363 239.026 236.418 238.877 236.429 238.722C236.43 238.587 236.403 238.454 236.35 238.331C236.296 238.207 236.218 238.096 236.119 238.005C235.761 237.656 235.392 237.704 235.383 237.627C235.373 237.549 235.78 237.355 236.352 237.733C236.511 237.842 236.644 237.986 236.74 238.154C236.836 238.322 236.892 238.509 236.904 238.702C236.909 238.953 236.836 239.2 236.695 239.408C236.555 239.616 236.354 239.776 236.119 239.865C235.893 239.974 235.639 240.013 235.39 239.977C235.142 239.941 234.909 239.831 234.724 239.662C234.588 239.52 234.486 239.35 234.426 239.164C234.365 238.978 234.348 238.78 234.375 238.586C234.472 237.937 234.927 237.762 234.937 237.83Z" fill="#263238"/>
<path d="M208.558 241.9C208.607 241.958 208.316 242.201 208.335 242.705C208.336 242.84 208.364 242.974 208.42 243.097C208.475 243.221 208.555 243.331 208.655 243.422C208.778 243.516 208.926 243.574 209.08 243.588C209.235 243.601 209.39 243.571 209.527 243.499C209.673 243.446 209.799 243.351 209.892 243.227C209.985 243.104 210.04 242.956 210.051 242.802C210.046 242.531 209.934 242.273 209.741 242.084C209.382 241.736 209.004 241.784 209.004 241.706C209.004 241.629 209.401 241.425 209.973 241.813C210.133 241.922 210.265 242.066 210.361 242.234C210.456 242.402 210.513 242.589 210.526 242.782C210.526 243.032 210.452 243.277 210.312 243.484C210.172 243.691 209.973 243.852 209.741 243.945C209.514 244.054 209.26 244.093 209.012 244.057C208.763 244.021 208.531 243.911 208.345 243.742C208.211 243.599 208.109 243.429 208.047 243.243C207.985 243.057 207.965 242.86 207.987 242.666C208.084 242.007 208.549 241.842 208.558 241.9Z" fill="#263238"/>
<path d="M394.031 245.796C394.089 245.854 393.798 246.096 393.818 246.591C393.817 246.725 393.844 246.858 393.897 246.982C393.951 247.105 394.029 247.216 394.128 247.308C394.25 247.404 394.397 247.463 394.551 247.479C394.706 247.494 394.861 247.465 395 247.395C395.146 247.339 395.274 247.243 395.368 247.118C395.463 246.993 395.52 246.844 395.533 246.688C395.531 246.554 395.502 246.422 395.447 246.3C395.392 246.179 395.312 246.07 395.213 245.98C394.855 245.622 394.486 245.68 394.477 245.602C394.467 245.525 394.874 245.321 395.446 245.699C395.606 245.808 395.739 245.952 395.837 246.12C395.934 246.288 395.992 246.475 396.008 246.668C396.02 246.848 395.994 247.029 395.932 247.198C395.87 247.367 395.773 247.521 395.646 247.65C395.52 247.779 395.369 247.88 395.201 247.946C395.033 248.012 394.853 248.042 394.673 248.034C394.493 248.025 394.317 247.979 394.156 247.898C393.995 247.817 393.853 247.703 393.739 247.563C393.625 247.423 393.542 247.26 393.496 247.086C393.449 246.912 393.44 246.73 393.469 246.552C393.556 245.903 394.021 245.728 394.031 245.796Z" fill="#263238"/>
<path d="M347.195 163.957C344.439 163.03 341.516 162.704 338.623 163.002C335.73 163.299 332.934 164.214 330.425 165.683C327.915 167.152 325.749 169.143 324.073 171.519C322.398 173.896 321.251 176.605 320.71 179.462L320.623 179.995C320.288 181.948 320.288 183.944 320.623 185.897C321.247 189.531 322.563 193.012 324.499 196.15C330.052 205.153 333.027 205.443 333.57 210.58C334.113 215.716 334.888 216.811 332.262 219.001C332.262 219.001 328.657 219.224 326.689 220.425C324.722 221.627 323.075 222.499 322.862 228.517C322.648 234.535 322.387 238.208 322.387 238.208C332.88 238.824 343.409 238.419 353.824 236.997L352.506 221.821C352.295 221.118 351.9 220.484 351.361 219.984C350.823 219.485 350.161 219.139 349.443 218.982C347.04 218.545 343.329 218.652 343.106 217.344C342.883 216.036 343.435 215.59 343.435 215.59C343.435 215.59 347.806 217.344 350.645 216.026C353.485 214.708 356.663 212.973 357.206 210.783C357.749 208.593 359.464 201.16 359.144 200.831C358.824 200.501 363.418 196.79 363.611 188.233C363.805 179.676 358.126 168.328 350.577 165.159C349.408 164.719 348.281 164.319 347.195 163.957Z" fill="#455A64"/>
<path d="M333.231 183.29C333.231 183.29 349.473 178.358 347.05 197.138C347.05 197.138 329.684 199.319 333.231 183.29Z" fill="#263238"/>
<path d="M354.047 196.731C354.047 196.731 347.205 180.412 359.202 182.04C359.202 182.089 365.714 193.853 354.047 196.731Z" fill="#263238"/>
<path d="M376.006 217.208C376.006 217.208 373.099 218.177 372.382 218.972C371.665 219.766 370.579 222.654 369.387 223.003C368.375 223.164 367.338 223.068 366.373 222.722C366.373 222.722 365.743 219.214 364.435 217.654C363.127 216.094 362.797 216.462 362.797 216.462C362.797 216.462 359.512 216.384 359.687 214.524C359.687 214.524 361.053 212.925 363.369 215.154C363.702 215.479 364.141 215.673 364.605 215.702C365.069 215.73 365.529 215.591 365.899 215.309C367.197 214.252 367.391 211.655 367.255 209.921C367.255 209.921 365.947 206.887 367.992 206.277C367.992 206.277 369.707 206.403 368.767 209.95C368.767 209.95 367.265 213.719 369.339 215.212C369.339 215.212 371.025 215.948 372.924 212.673L373.554 211.471C373.554 211.471 373.661 208.874 375.919 208.806C376.05 208.801 376.179 208.844 376.282 208.925C376.385 209.007 376.456 209.123 376.481 209.252C376.599 209.868 376.485 210.505 376.161 211.042C375.837 211.579 375.327 211.977 374.727 212.159C374.727 212.159 372.139 214.097 372.479 216.336C372.479 216.336 373.264 217.179 375.211 216.287L375.958 216.006C375.958 216.006 378.409 213.913 378.768 214.873C379.136 216.055 377.741 217.295 376.006 217.208Z" fill="#455A64"/>
<path d="M366.364 222.218L363.195 235.708L365.937 235.272L368.767 234.71L370.405 222.179L366.364 222.218Z" fill="#455A64"/>
<g opacity="0.2">
<path d="M331.225 168.851C330.63 168.85 330.054 169.053 329.59 169.424C329.127 169.796 328.804 170.315 328.676 170.896C328.59 171.497 328.707 172.109 329.009 172.636C329.311 173.163 329.781 173.574 330.343 173.803C330.921 173.998 331.549 173.992 332.123 173.784C332.697 173.576 333.183 173.18 333.502 172.659C333.789 172.121 333.882 171.5 333.763 170.901C333.645 170.302 333.323 169.763 332.853 169.374C332.55 169.144 332.201 168.983 331.829 168.902C331.457 168.822 331.072 168.824 330.701 168.909" fill="white"/>
</g>
<path d="M335.779 187.06C335.534 187.037 335.288 187.098 335.082 187.234C334.875 187.37 334.722 187.571 334.646 187.806C334.571 188.055 334.588 188.321 334.693 188.559C334.799 188.796 334.985 188.987 335.22 189.098C335.454 189.21 335.72 189.233 335.97 189.165C336.221 189.097 336.438 188.942 336.584 188.727C336.724 188.515 336.786 188.261 336.76 188.008C336.733 187.755 336.62 187.519 336.438 187.341C336.322 187.234 336.184 187.154 336.033 187.107C335.882 187.06 335.723 187.047 335.566 187.07" fill="#455A64"/>
<path d="M336.225 191.053C336.101 191.04 335.976 191.071 335.872 191.14C335.768 191.209 335.691 191.311 335.653 191.431C335.623 191.555 335.636 191.687 335.691 191.803C335.745 191.92 335.838 192.014 335.954 192.07C336.069 192.126 336.201 192.139 336.325 192.107C336.449 192.075 336.558 192 336.632 191.896C336.695 191.81 336.731 191.708 336.736 191.603C336.741 191.497 336.714 191.392 336.659 191.301C336.604 191.211 336.523 191.139 336.427 191.095C336.33 191.05 336.223 191.036 336.119 191.053" fill="#455A64"/>
<g opacity="0.2">
<path d="M327.348 174.879C327.123 174.963 326.934 175.123 326.815 175.333C326.695 175.542 326.653 175.786 326.696 176.023C326.739 176.26 326.863 176.475 327.048 176.629C327.233 176.784 327.466 176.868 327.707 176.868C327.948 176.868 328.181 176.784 328.366 176.629C328.551 176.475 328.675 176.26 328.718 176.023C328.761 175.786 328.719 175.542 328.599 175.333C328.48 175.123 328.291 174.963 328.066 174.879" fill="white"/>
</g>
<path d="M342.195 198.922C341.942 198.972 341.682 198.972 341.429 198.922C340.728 198.897 340.033 198.793 339.355 198.611C337.08 198.036 335.041 196.763 333.524 194.972C332.007 193.18 331.088 190.96 330.895 188.62C330.822 187.921 330.822 187.216 330.895 186.517C330.903 186.259 330.962 186.006 331.07 185.771C331.167 185.771 330.982 186.856 331.215 188.572C331.496 190.808 332.42 192.914 333.875 194.634C335.331 196.355 337.255 197.615 339.413 198.263C341.071 198.825 342.204 198.834 342.195 198.922Z" fill="#263238"/>
<path d="M347.079 186.856C345.873 185.285 344.392 183.946 342.708 182.903C340.949 181.998 339.042 181.414 337.078 181.178C337.661 181.031 338.269 181.011 338.861 181.119C340.303 181.291 341.697 181.749 342.96 182.466C344.223 183.183 345.33 184.146 346.216 185.296C346.617 185.745 346.912 186.278 347.079 186.856Z" fill="#263238"/>
<path d="M352.041 188.872C351.863 188.398 351.771 187.896 351.769 187.389C351.629 186.166 351.738 184.926 352.089 183.746C352.278 183.146 352.585 182.589 352.991 182.109C353.397 181.628 353.894 181.232 354.454 180.945C354.675 180.805 354.922 180.712 355.18 180.67C355.438 180.629 355.702 180.64 355.956 180.703C355.5 180.861 355.053 181.046 354.618 181.255C353.647 181.876 352.921 182.814 352.564 183.91C352.236 185.037 352.089 186.208 352.128 187.38C352.181 187.879 352.152 188.383 352.041 188.872Z" fill="#263238"/>
<path d="M359.803 194.948C359.614 195.461 359.318 195.929 358.936 196.32C358.554 196.71 358.093 197.016 357.584 197.216C357.114 197.496 356.591 197.673 356.048 197.737C355.506 197.8 354.956 197.748 354.434 197.584C355.429 197.415 356.403 197.142 357.342 196.77C358.224 196.252 359.05 195.641 359.803 194.948Z" fill="#263238"/>
<path d="M350.422 204.377C350.422 204.436 350.228 204.639 349.763 204.755C349.455 204.832 349.134 204.845 348.82 204.796C348.505 204.747 348.204 204.636 347.934 204.469C347.663 204.302 347.428 204.083 347.243 203.824C347.058 203.566 346.927 203.273 346.856 202.963C346.759 202.488 346.856 202.207 346.914 202.207C346.972 202.207 347.031 202.478 347.195 202.846C347.396 203.327 347.733 203.738 348.164 204.029C348.615 204.295 349.133 204.426 349.657 204.407C350.132 204.377 350.393 204.3 350.422 204.377Z" fill="#263238"/>
<path d="M347.593 216.21C347.022 216.356 346.427 216.376 345.848 216.268C344.436 216.094 343.076 215.628 341.853 214.901C340.631 214.173 339.572 213.2 338.745 212.043C338.368 211.59 338.103 211.056 337.97 210.483C338.353 210.909 338.709 211.358 339.036 211.83C340.784 213.949 343.218 215.392 345.916 215.91C346.481 215.972 347.041 216.072 347.593 216.21Z" fill="#263238"/>
<path d="M329.064 238.353C328.728 235.265 328.728 232.149 329.064 229.06C329.4 232.149 329.4 235.265 329.064 238.353Z" fill="#263238"/>
<path d="M339.036 234.758C337.663 235.283 336.184 235.473 334.723 235.311C333.648 235.363 332.588 235.045 331.719 234.409C331.079 233.818 331.089 233.217 331.147 233.227C331.205 233.237 331.351 233.702 331.942 234.128C332.79 234.62 333.763 234.855 334.742 234.807C337.097 234.933 339.006 234.613 339.036 234.758Z" fill="#263238"/>
<path d="M348.523 237.578C348.169 236.315 347.97 235.013 347.932 233.702C347.733 232.4 347.701 231.078 347.835 229.767C348.405 232.333 348.637 234.962 348.523 237.588V237.578Z" fill="#263238"/>
<path d="M348.048 231.318C347.76 232.197 347.161 232.942 346.364 233.411C345.566 233.88 344.625 234.042 343.716 233.867C344.537 233.634 345.337 233.336 346.11 232.975C347.321 232.277 347.912 231.24 348.048 231.318Z" fill="#263238"/>
<path d="M357.623 162.94C356.535 163.427 355.508 164.038 354.56 164.761C353.725 165.612 352.993 166.559 352.38 167.581C352.322 167.581 352.38 167.136 352.651 166.515C353.022 165.704 353.558 164.978 354.226 164.386C354.893 163.793 355.677 163.347 356.527 163.075C357.186 162.881 357.613 162.881 357.623 162.94Z" fill="#455A64"/>
<path d="M358.805 161.903C358.504 161.753 358.158 161.723 357.836 161.818C357.515 161.914 357.241 162.127 357.07 162.416C356.959 162.625 356.914 162.862 356.94 163.097C356.966 163.331 357.062 163.553 357.216 163.732C357.37 163.911 357.574 164.039 357.803 164.1C358.031 164.161 358.272 164.152 358.495 164.073C358.684 164.003 358.854 163.89 358.992 163.742C359.131 163.595 359.233 163.418 359.291 163.224C359.349 163.031 359.362 162.827 359.328 162.628C359.294 162.429 359.214 162.24 359.096 162.077C359.018 161.965 358.911 161.876 358.786 161.819C358.661 161.763 358.524 161.742 358.388 161.757" fill="#455A64"/>
<path d="M353.174 161.176C352.085 161.655 351.057 162.264 350.112 162.988C349.277 163.839 348.545 164.786 347.932 165.808C347.874 165.808 347.932 165.372 348.193 164.742C348.569 163.929 349.111 163.203 349.783 162.61C350.451 162.017 351.237 161.571 352.089 161.302C352.7 161.108 353.165 161.118 353.174 161.176Z" fill="#455A64"/>
<path d="M354.357 160.129C354.055 159.98 353.708 159.952 353.386 160.049C353.064 160.146 352.791 160.362 352.622 160.652C352.509 160.86 352.462 161.098 352.487 161.333C352.512 161.569 352.608 161.791 352.763 161.97C352.918 162.149 353.124 162.277 353.353 162.336C353.583 162.395 353.825 162.382 354.047 162.3C354.236 162.231 354.406 162.118 354.544 161.972C354.682 161.826 354.785 161.649 354.843 161.457C354.901 161.264 354.914 161.06 354.88 160.862C354.846 160.663 354.766 160.476 354.647 160.313C354.572 160.199 354.465 160.108 354.34 160.051C354.215 159.994 354.076 159.974 353.94 159.994" fill="#455A64"/>
<path d="M228.55 175.402L229.016 176.245C229.546 177.187 230.328 177.962 231.274 178.484L232.117 178.939L231.274 179.404C230.324 179.918 229.541 180.691 229.016 181.633L228.55 182.476L228.085 181.633C227.566 180.689 226.786 179.915 225.837 179.404L224.984 178.939L225.837 178.484C226.784 177.966 227.564 177.19 228.085 176.245L228.55 175.402Z" fill="#FAFAFA"/>
<path d="M301.338 310.56L301.803 311.403C302.322 312.347 303.103 313.121 304.052 313.632L304.904 314.097L304.052 314.552C303.108 315.067 302.333 315.845 301.823 316.791L301.358 317.624L300.892 316.791C300.37 315.844 299.586 315.067 298.634 314.552L297.791 314.097L298.634 313.632C299.584 313.118 300.367 312.345 300.892 311.403L301.338 310.56Z" fill="#EBEBEB"/>
<path d="M156.829 395.132L157.294 395.975C157.819 396.917 158.603 397.69 159.552 398.204L160.405 398.669L159.552 399.124C158.6 399.638 157.816 400.415 157.294 401.363L156.829 402.196L156.364 401.363C155.848 400.414 155.066 399.636 154.115 399.124L153.262 398.669L154.115 398.204C155.064 397.693 155.844 396.919 156.364 395.975L156.829 395.132Z" fill="#EBEBEB"/>
<path d="M468.747 20.3585L469.212 21.2016C469.729 22.1433 470.502 22.9194 471.441 23.4402L472.284 23.8957L471.441 24.3511C470.502 24.8719 469.729 25.6481 469.212 26.5897L468.747 27.4328L468.292 26.5897C467.782 25.6494 467.016 24.8731 466.082 24.3511L465.249 23.8957L466.082 23.4402C467.013 22.9234 467.779 22.1542 468.292 21.221L468.747 20.3585Z" fill="#455A64"/>
<path d="M340.334 347.879L340.799 348.722C341.313 349.663 342.087 350.437 343.028 350.951L343.871 351.416L343.028 351.872C342.085 352.387 341.311 353.165 340.799 354.11L340.334 354.944L339.879 354.11C339.366 353.162 338.588 352.384 337.64 351.872L336.797 351.416L337.64 350.951C338.586 350.44 339.363 349.666 339.879 348.722L340.334 347.879Z" fill="#455A64"/>
<path d="M72.1019 73.9294L72.5671 74.7725C73.0847 75.7167 73.8613 76.4934 74.8056 77.011L75.639 77.4665L74.8056 77.922C73.8613 78.4396 73.0847 79.2163 72.5671 80.1606L72.1019 81.0037L71.6464 80.1606C71.1288 79.2163 70.3521 78.4396 69.4078 77.922L68.5744 77.4665L69.4078 77.011C70.3521 76.4934 71.1288 75.7167 71.6464 74.7725L72.1019 73.9294Z" fill="#455A64"/>
<path d="M512.879 374.19L513.344 375.033C513.861 375.974 514.634 376.751 515.573 377.271L516.416 377.727L515.573 378.192C514.632 378.706 513.859 379.48 513.344 380.421L512.879 381.264L512.424 380.421C511.908 379.478 511.131 378.703 510.185 378.192L509.352 377.727L510.185 377.271C511.129 376.754 511.906 375.977 512.424 375.033L512.879 374.19Z" fill="#455A64"/>
<path d="M464.144 284.724L464.599 285.567C465.12 286.507 465.896 287.279 466.838 287.796L467.681 288.261L466.838 288.717C465.894 289.234 465.117 290.011 464.599 290.955L464.144 291.798L463.679 290.955C463.167 290.01 462.393 289.232 461.45 288.717L460.607 288.261L461.45 287.796C462.391 287.282 463.165 286.508 463.679 285.567L464.144 284.724Z" fill="#455A64"/>
<path d="M153.262 231.163L153.728 232.006C154.244 232.948 155.017 233.724 155.957 234.245L156.8 234.7L155.957 235.156C155.017 235.676 154.244 236.452 153.728 237.394L153.262 238.237L152.807 237.394C152.282 236.455 151.507 235.68 150.568 235.156L149.725 234.7L150.568 234.245C151.507 233.72 152.282 232.945 152.807 232.006L153.262 231.163Z" fill="#455A64"/>
<path d="M566.237 208.719L566.469 209.136C566.726 209.606 567.113 209.993 567.584 210.25L568.01 210.483L567.584 210.715C567.113 210.972 566.726 211.359 566.469 211.83L566.237 212.256L566.014 211.83C565.756 211.356 565.365 210.969 564.89 210.715L564.473 210.483L564.89 210.25C565.365 209.996 565.756 209.609 566.014 209.136L566.237 208.719Z" fill="#455A64"/>
<path d="M238.067 308.796L238.28 309.222C238.518 309.704 238.892 310.105 239.356 310.376L239.763 310.628L239.336 310.841C238.857 311.081 238.457 311.455 238.183 311.916L237.931 312.323L237.718 311.897C237.481 311.413 237.107 311.008 236.642 310.734L236.235 310.492L236.662 310.279C237.144 310.038 237.547 309.665 237.825 309.203L238.067 308.796Z" fill="#455A64"/>
<path d="M530.332 102.73L530.565 103.147C530.816 103.622 531.205 104.01 531.679 104.262L532.096 104.494L531.679 104.727C531.205 104.978 530.816 105.367 530.565 105.841L530.332 106.258L530.1 105.841C529.848 105.367 529.46 104.978 528.985 104.727L528.568 104.494L528.985 104.262C529.46 104.01 529.848 103.622 530.1 103.147L530.332 102.73Z" fill="#455A64"/>
<path d="M246.1 114.553L246.333 114.98C246.595 115.447 246.981 115.832 247.448 116.094L247.874 116.327L247.448 116.55C246.979 116.814 246.593 117.203 246.333 117.674L246.1 118.129L245.878 117.712C245.617 117.239 245.227 116.849 244.753 116.588L244.337 116.365L244.753 116.133C245.224 115.873 245.613 115.487 245.878 115.018L246.1 114.553Z" fill="#455A64"/>
<path d="M121.932 36.8911L122.155 37.3175C122.419 37.7858 122.809 38.1716 123.279 38.4319L123.696 38.6645L123.279 38.8874C122.805 39.1478 122.415 39.5377 122.155 40.0115L121.932 40.4282L121.7 40.0115C121.439 39.5409 121.053 39.1518 120.585 38.8874L120.12 38.6645L120.546 38.4319C121.013 38.1701 121.399 37.7845 121.661 37.3175L121.932 36.8911Z" fill="#455A64"/>
<path d="M362.042 67.8338L362.826 69.2778C363.719 70.916 365.065 72.262 366.703 73.1541L368.156 73.9488L366.703 74.7434C365.065 75.6355 363.719 76.9815 362.826 78.6197L362.042 80.0734L361.247 78.6197C360.355 76.9815 359.009 75.6355 357.371 74.7434L355.917 73.9488L357.371 73.1541C359.009 72.262 360.355 70.916 361.247 69.2778L362.042 67.8338Z" fill="#455A64"/>
<path d="M603.692 294.357L604.486 295.81C605.379 297.449 606.724 298.795 608.363 299.687L609.807 300.481L608.363 301.276C606.724 302.168 605.379 303.514 604.486 305.152L603.692 306.596L602.916 305.162C602.024 303.524 600.678 302.178 599.04 301.286L597.587 300.491L599.04 299.696C600.678 298.804 602.024 297.458 602.916 295.82L603.692 294.357Z" fill="#455A64"/>
<path d="M112.706 348.848L113.491 350.302C114.383 351.94 115.729 353.286 117.368 354.178L118.821 354.963L117.368 355.758C115.729 356.65 114.383 357.996 113.491 359.634L112.706 361.088L111.912 359.634C111.02 357.996 109.674 356.65 108.035 355.758L106.582 354.963L108.035 354.178C109.674 353.286 111.02 351.94 111.912 350.302L112.706 348.848Z" fill="#455A64"/>
<path d="M594.272 54.9741C588.865 51.8343 581.878 54.6155 577.013 58.5597C572.148 62.5039 568.059 67.6497 562.283 70.0627C558.6 71.6035 554.395 72.0009 551.138 74.2588C545.828 77.9995 544.898 85.5389 545.818 91.964C546.739 98.389 548.987 104.775 548.202 111.22C547.611 115.939 545.401 120.668 546.603 125.281C548.28 131.735 555.703 134.807 559.317 140.418C561.915 144.44 562.622 149.867 566.498 152.687C570.985 155.962 577.226 154.053 582.76 154.557C589.543 155.167 595.406 159.538 601.889 161.738C607.099 163.435 612.662 163.739 618.026 162.621C623.389 161.502 628.367 158.999 632.464 155.361C636.582 151.611 639.606 146.824 643.657 143.005C647.116 139.74 651.312 137.191 654.152 133.363C656.991 129.535 658.125 125.077 659.298 120.62C661.013 114.107 662.738 107.334 661.488 100.715C659.482 90.1518 650.479 82.467 645.789 72.7955C643.957 69.0258 642.62 64.7134 639.228 62.2519C635.633 59.6354 630.768 59.8583 626.562 58.4337C620.525 56.3987 615.96 51.0106 609.787 49.431C606.943 48.7547 603.963 48.9195 601.21 49.9053C598.457 50.8911 596.05 52.6554 594.282 54.9838" fill="#C53F3F"/>
<g opacity="0.2">
<path d="M594.272 54.9741C588.865 51.8343 581.878 54.6155 577.013 58.5597C572.148 62.5039 568.059 67.6497 562.283 70.0627C558.6 71.6035 554.395 72.0009 551.138 74.2588C545.828 77.9995 544.898 85.5389 545.818 91.964C546.739 98.389 548.987 104.775 548.202 111.22C547.611 115.939 545.401 120.668 546.603 125.281C548.28 131.735 555.703 134.807 559.317 140.418C561.915 144.44 562.622 149.867 566.498 152.687C570.985 155.962 577.226 154.053 582.76 154.557C589.543 155.167 595.406 159.538 601.889 161.738C607.099 163.435 612.662 163.739 618.026 162.621C623.389 161.502 628.367 158.999 632.464 155.361C636.582 151.611 639.606 146.824 643.657 143.005C647.116 139.74 651.312 137.191 654.152 133.363C656.991 129.535 658.125 125.077 659.298 120.62C661.013 114.107 662.738 107.334 661.488 100.715C659.482 90.1518 650.479 82.467 645.789 72.7955C643.957 69.0258 642.62 64.7134 639.228 62.2519C635.633 59.6354 630.768 59.8583 626.562 58.4337C620.525 56.3987 615.96 51.0106 609.787 49.431C606.943 48.7547 603.963 48.9195 601.21 49.9053C598.457 50.8911 596.05 52.6554 594.282 54.9838" fill="white"/>
</g>
<path d="M604.756 151.808C630.136 150.908 649.981 129.605 649.081 104.225C648.182 78.8451 626.878 59 601.498 59.8996C576.119 60.7992 556.274 82.1028 557.173 107.483C558.073 132.862 579.376 152.707 604.756 151.808Z" fill="#C53F3F"/>
<path opacity="0.4" d="M589.572 113.449C588.658 114.617 587.417 115.488 586.008 115.952C584.598 116.416 583.083 116.451 581.653 116.053C580.224 115.655 578.944 114.842 577.977 113.717C577.01 112.592 576.398 111.205 576.219 109.732C576.04 108.259 576.302 106.766 576.971 105.442C577.641 104.117 578.688 103.022 579.981 102.293C581.273 101.564 582.753 101.235 584.233 101.348C585.712 101.46 587.125 102.009 588.293 102.924C589.857 104.151 590.871 105.948 591.111 107.922C591.35 109.895 590.797 111.883 589.572 113.449Z" fill="black"/>
<path opacity="0.4" d="M594.553 89.8514C594.021 90.5302 593.3 91.036 592.481 91.3051C591.662 91.5741 590.781 91.5942 589.95 91.3627C589.12 91.1313 588.376 90.6588 587.814 90.005C587.252 89.3511 586.896 88.5452 586.792 87.6892C586.687 86.8332 586.839 85.9655 587.228 85.1958C587.617 84.4261 588.225 83.7889 588.976 83.3648C589.727 82.9407 590.586 82.7487 591.446 82.8132C592.306 82.8776 593.128 83.1955 593.807 83.7268C594.258 84.0798 594.636 84.5182 594.918 85.0172C595.199 85.5161 595.38 86.0656 595.449 86.6344C595.519 87.2032 595.475 87.7801 595.321 88.3321C595.168 88.884 594.907 89.4003 594.553 89.8514Z" fill="black"/>
<path d="M229.513 419.512C241.01 419.016 249.927 409.294 249.431 397.798C248.935 386.302 239.214 377.384 227.718 377.88C216.221 378.376 207.304 388.097 207.8 399.594C208.296 411.09 218.017 420.008 229.513 419.512Z" fill="#C53F3F"/>
<path opacity="0.2" d="M219.829 393C219.16 393.074 218.484 392.949 217.886 392.639C217.289 392.329 216.796 391.849 216.472 391.259C216.147 390.67 216.005 389.997 216.063 389.327C216.121 388.656 216.376 388.018 216.797 387.492C217.218 386.967 217.785 386.578 218.427 386.376C219.068 386.173 219.756 386.165 220.402 386.353C221.048 386.541 221.624 386.917 222.057 387.432C222.49 387.948 222.76 388.58 222.833 389.249C222.931 390.145 222.67 391.042 222.106 391.746C221.543 392.449 220.724 392.9 219.829 393Z" fill="black"/>
<path opacity="0.2" d="M226.787 385.208C226.408 385.241 226.029 385.162 225.695 384.981C225.361 384.8 225.088 384.525 224.909 384.189C224.73 383.854 224.654 383.474 224.689 383.096C224.725 382.718 224.87 382.358 225.109 382.062C225.347 381.766 225.666 381.547 226.028 381.431C226.39 381.315 226.778 381.309 227.144 381.411C227.509 381.514 227.837 381.722 228.085 382.01C228.333 382.297 228.492 382.651 228.541 383.028C228.574 383.287 228.555 383.55 228.485 383.802C228.414 384.054 228.293 384.288 228.129 384.492C227.965 384.696 227.762 384.864 227.531 384.987C227.3 385.11 227.047 385.185 226.787 385.208Z" fill="black"/>
<path opacity="0.2" d="M233.163 387.03C233.147 386.887 233.173 386.743 233.239 386.615C233.305 386.487 233.407 386.382 233.533 386.312C233.659 386.242 233.802 386.211 233.945 386.223C234.089 386.235 234.225 386.289 234.338 386.379C234.45 386.468 234.534 386.589 234.578 386.726C234.621 386.863 234.624 387.009 234.584 387.148C234.544 387.286 234.465 387.409 234.355 387.502C234.245 387.595 234.111 387.653 233.968 387.67C233.873 387.682 233.776 387.675 233.684 387.649C233.592 387.623 233.506 387.579 233.431 387.519C233.356 387.46 233.293 387.386 233.247 387.302C233.201 387.218 233.173 387.125 233.163 387.03Z" fill="black"/>
<path d="M66.2099 225.339C88.5121 225.339 106.592 207.259 106.592 184.957C106.592 162.655 88.5121 144.575 66.2099 144.575C43.9077 144.575 25.8283 162.655 25.8283 184.957C25.8283 207.259 43.9077 225.339 66.2099 225.339Z" fill="#C53F3F"/>
<path opacity="0.2" d="M52.4586 199.106C52.4586 200.409 52.0719 201.684 51.3474 202.768C50.6229 203.852 49.5931 204.696 48.3884 205.195C47.1837 205.693 45.8583 205.823 44.5797 205.568C43.3012 205.313 42.127 204.684 41.2058 203.762C40.2846 202.839 39.6577 201.664 39.4046 200.385C39.1514 199.106 39.2833 197.781 39.7835 196.577C40.2838 195.373 41.1299 194.345 42.2149 193.622C43.2998 192.899 44.5748 192.514 45.8786 192.516C46.7435 192.516 47.5999 192.686 48.3989 193.018C49.1978 193.349 49.9237 193.835 50.5348 194.447C51.1459 195.059 51.6304 195.785 51.9605 196.585C52.2906 197.384 52.4599 198.241 52.4586 199.106Z" fill="white"/>
<path opacity="0.2" d="M43.1167 180.092C43.1263 180.861 42.9071 181.615 42.4871 182.259C42.067 182.903 41.4651 183.407 40.7576 183.708C40.0502 184.009 39.2694 184.092 38.5143 183.948C37.7592 183.804 37.0639 183.439 36.517 182.899C35.97 182.359 35.596 181.668 35.4424 180.915C35.2889 180.162 35.3628 179.38 35.6547 178.669C35.9466 177.958 36.4434 177.349 37.0818 176.921C37.7203 176.493 38.4716 176.264 39.2404 176.264C40.2601 176.264 41.2388 176.666 41.9644 177.383C42.6899 178.099 43.1039 179.073 43.1167 180.092Z" fill="white"/>
<path d="M27.0881 194.784C27.2625 195.481 -7.47908 228.818 1.47523 235.911C10.4295 243.005 48.1074 224.796 80.2228 198.863C112.338 172.931 141.624 141.387 133.59 133.092C125.556 124.796 85.4365 149.44 85.4365 149.44L90.2819 152.493C90.2819 152.493 114.509 136.929 122.262 142.967C130.014 149.004 108.065 172.611 77.1799 195.152C46.2953 217.693 16.37 233.518 11.7378 227.345C7.1056 221.172 28.9584 200.569 28.9584 200.569L27.0881 194.784Z" fill="#C53F3F"/>
<path opacity="0.4" d="M27.0881 194.784C27.2625 195.481 -7.47908 228.818 1.47523 235.911C10.4295 243.005 48.1074 224.796 80.2228 198.863C112.338 172.931 141.624 141.387 133.59 133.092C125.556 124.796 85.4365 149.44 85.4365 149.44L90.2819 152.493C90.2819 152.493 114.509 136.929 122.262 142.967C130.014 149.004 108.065 172.611 77.1799 195.152C46.2953 217.693 16.37 233.518 11.7378 227.345C7.1056 221.172 28.9584 200.569 28.9584 200.569L27.0881 194.784Z" fill="black"/>
<path d="M460.35 154.182C465.661 148.627 465.465 139.818 459.91 134.506C454.355 129.194 445.547 129.391 440.235 134.946C434.923 140.5 435.12 149.309 440.674 154.621C446.229 159.933 455.038 159.736 460.35 154.182Z" fill="#455A64"/>
<path d="M454.831 139.245C454.843 138.798 454.987 138.363 455.245 137.997C455.503 137.631 455.864 137.35 456.282 137.188C456.7 137.027 457.157 136.993 457.594 137.091C458.031 137.189 458.429 137.415 458.739 137.739C459.048 138.063 459.254 138.471 459.332 138.913C459.409 139.354 459.354 139.808 459.173 140.218C458.993 140.628 458.695 140.976 458.317 141.216C457.939 141.457 457.498 141.581 457.05 141.571C456.752 141.565 456.457 141.5 456.184 141.379C455.91 141.259 455.664 141.086 455.457 140.87C455.251 140.653 455.09 140.399 454.982 140.12C454.875 139.841 454.823 139.544 454.831 139.245Z" fill="#263238"/>
<path d="M459.366 144.546C459.37 144.283 459.453 144.027 459.602 143.81C459.752 143.594 459.963 143.427 460.209 143.33C460.454 143.234 460.722 143.213 460.979 143.27C461.236 143.326 461.471 143.458 461.653 143.648C461.835 143.839 461.957 144.079 462.002 144.338C462.047 144.598 462.014 144.865 461.907 145.106C461.8 145.346 461.624 145.55 461.401 145.69C461.178 145.83 460.918 145.901 460.655 145.893C460.306 145.883 459.976 145.736 459.735 145.484C459.493 145.232 459.361 144.895 459.366 144.546Z" fill="#263238"/>
<path d="M457.603 148.597C457.715 148.62 457.815 148.68 457.888 148.768C457.96 148.857 457.999 148.967 457.999 149.082C457.999 149.196 457.96 149.306 457.888 149.395C457.815 149.483 457.715 149.544 457.603 149.566C457.473 149.561 457.351 149.506 457.262 149.411C457.173 149.317 457.125 149.192 457.128 149.062C457.137 148.94 457.19 148.826 457.278 148.74C457.365 148.655 457.481 148.604 457.603 148.597Z" fill="#263238"/>
</svg>
